<?xml version="1.0" encoding="utf-8"?>
<!-- Generator: Adobe Illustrator 25.2.3, SVG Export Plug-In . SVG Version: 6.00 Build 0)  -->
<svg version="1.1" id="ed1cb2a2-9ed7-4833-8d03-c78f60f09f28"
	 xmlns="http://www.w3.org/2000/svg" xmlns:xlink="http://www.w3.org/1999/xlink" x="0px" y="0px" viewBox="0 0 757 473.4"
	 style="enable-background:new 0 0 757 473.4;" xml:space="preserve">
<style type="text/css">
	.st0{fill:#A0616A;}
	.st1{fill:#2F62AC;}
	.st2{fill:#2F2E41;}
	.st3{fill:#3F3D56;}
	.st4{fill:#2E62AC;}
	.st5{fill:#18223C;}
	.st6{fill:#1A293E;}
	.st7{fill:#3F1F52;}
	.st8{fill:#411F52;}
	.st9{fill:#26B6EB;}
</style>
<path class="st0" d="M612.6,311.4c-2.9-4.7-1.4-10.9,3.3-13.8c0.5-0.3,1-0.6,1.6-0.8l-1.4-35.7l15.9,9.6l-1.1,32.4
	c1.7,5.3-1.3,11-6.6,12.7C619.9,317.2,615,315.4,612.6,311.4L612.6,311.4z"/>
<path class="st1" d="M633.8,288.3l-14.1,2.3c-2.5,0.4-4.8-1.3-5.2-3.7c0,0,0-0.1,0-0.1l-6-45L579,201.2c-4.4-6.1-3.1-14.6,3-19
	c0.2-0.2,0.5-0.3,0.7-0.5l0,0c6.3-4,14.7-2.2,18.8,4.1l30.2,47.2l6,50.2c0,0.3,0,0.6,0,1C637.4,286.3,635.8,287.9,633.8,288.3z"/>
<polygon class="st0" points="585.1,455.4 572.8,455.4 567,408.1 585.1,408.1 "/>
<path class="st2" d="M564.1,451.9h23.6l0,0v14.9l0,0h-38.5l0,0l0,0C549.2,458.6,555.8,451.9,564.1,451.9z"/>
<polygon class="st0" points="636.8,434.4 627.7,442.6 593.5,408.9 605.4,399.1 "/>
<path class="st2" d="M618.8,445.8l17.7-15.7l0,0l9.9,11.1l0,0l-28.8,25.6l0,0l0,0C612.1,460.6,612.6,451.2,618.8,445.8z"/>
<path class="st0" d="M461.9,185c5.4-1.3,10.8,2.1,12.1,7.5c0.1,0.6,0.2,1.2,0.2,1.8l34.3,9.9l-14.1,12.1L464,205
	c-5.6-0.1-10-4.7-10-10.2C454.1,190,457.3,186,461.9,185L461.9,185z"/>
<circle class="st0" cx="568.9" cy="126.2" r="24.6"/>
<path class="st2" d="M586.6,446.5l-17.1-1.4c-2.3-0.2-4.1-2-4.1-4.3L560.6,297c-0.1-2.3,1.6-4.3,3.9-4.6l34-4.7
	c2.5-0.3,4.7,1.4,5.1,3.8c0.1,0.5,0.1,0.9,0,1.4l-13,76.2c0,0.2-0.1,0.4,0,0.6l0.9,72.2c0,2.5-2,4.5-4.4,4.6c0,0,0,0-0.1,0
	C586.8,446.5,586.7,446.5,586.6,446.5z"/>
<path class="st2" d="M608.4,429.3L549.8,364c-0.9-0.9-1.3-2.2-1.1-3.5l7.4-69.4c0.3-2.4,2.4-4.2,4.8-4l36,2.4
	c2.5,0.2,4.4,2.3,4.2,4.8c0,0.4-0.1,0.8-0.2,1.1l-21.6,63.8c-0.4,1.2-0.1,2.6,0.8,3.6l49.8,51.6c1.7,1.8,1.7,4.6-0.1,6.4
	c-0.3,0.2-0.5,0.5-0.8,0.6l-14.8,8.8C612.2,431.2,609.9,430.9,608.4,429.3z"/>
<path class="st1" d="M564.5,165.9c0,0,15-13,22-6c0,0,32.5,20.5,18.5,76.5c0,0,12,54,7,56s-55.5,9.5-59.5,3.5
	S546.5,197.9,564.5,165.9z"/>
<path class="st1" d="M477.1,212.4l2.3-14.1c0.4-2.5,2.7-4.1,5.2-3.7c0,0,0.1,0,0.1,0l44.6,8.6l47.7-15.3c7.1-2.3,14.8,1.7,17.1,8.8
	c0.1,0.3,0.2,0.5,0.2,0.8l0,0c1.8,7.3-2.6,14.7-9.8,16.5l-54.3,13.7l-49.5-10.2c-0.3-0.1-0.6-0.2-0.9-0.3
	C477.9,216.4,476.8,214.5,477.1,212.4z"/>
<path class="st2" d="M579.4,146.1c2.2-5.2,4.1-12.1-0.2-15.8c-2.5-2.1-6.1-2.1-9.4-2.4c-9.2-0.7-18.7-5-23.2-13.1s-2-20.1,6.5-23.7
	c5.7-2.5,12.3-0.8,18.3,0.9l18,5.1c5.4,1.5,11,3.2,14.8,7.2c6.1,6.4,5.7,17.2,0.8,24.6s-12.2,15.1-20.6,17.9L579.4,146.1z"/>
<path class="st3" d="M301.8,311.3c-0.6,0-1-0.4-1-1v-41c0-0.6,0.4-1,1-1s1,0.4,1,1v41C302.8,310.9,302.4,311.3,301.8,311.3z"/>
<path class="st3" d="M300.5,253.3c-0.2,0-0.3,0-0.5-0.1l-56.8-33.1c-0.5-0.3-0.6-0.9-0.4-1.4c0.3-0.5,0.9-0.6,1.4-0.4l56.8,33.1
	c0.5,0.3,0.6,0.9,0.4,1.4C301.1,253.1,300.8,253.3,300.5,253.3z"/>
<path class="st3" d="M186.8,253.3c-0.6,0-1-0.4-1-1c0-0.4,0.2-0.7,0.5-0.9l56.8-33.1c0.5-0.3,1.1-0.1,1.4,0.4
	c0.3,0.5,0.1,1.1-0.4,1.4l-56.8,33.1C187.2,253.3,187,253.3,186.8,253.3z"/>
<path class="st3" d="M359.5,303.3c-0.2,0-0.3,0-0.5-0.1l-56.8-33.1c-0.5-0.3-0.6-0.9-0.4-1.4c0.3-0.5,0.9-0.6,1.4-0.4l56.8,33.1
	c0.5,0.3,0.6,0.9,0.4,1.4C360.1,303.1,359.8,303.3,359.5,303.3z"/>
<path class="st3" d="M245.8,303.3c-0.6,0-1-0.4-1-1c0-0.4,0.2-0.7,0.5-0.9l56.8-33.1c0.5-0.3,1.1-0.1,1.4,0.4
	c0.3,0.5,0.1,1.1-0.4,1.4l-56.8,33.1C246.2,303.3,246,303.3,245.8,303.3z"/>
<path class="st3" d="M243.8,202.3c-0.6,0-1-0.4-1-1l-0.1-36.4c0-0.6,0.4-1,1-1c0,0,0,0,0,0h0c0.6,0,1,0.4,1,1l0.1,36.4
	C244.8,201.9,244.4,202.3,243.8,202.3C243.8,202.3,243.8,202.3,243.8,202.3L243.8,202.3z"/>
<path class="st1" d="M256.8,221.2h-26.1c-2.5,0-4.5-2-4.5-4.5v-13.4c0-2.5,2-4.5,4.5-4.5h26.1c2.5,0,4.5,2,4.5,4.5v13.4
	C261.3,219.2,259.2,221.2,256.8,221.2z"/>
<path class="st3" d="M213.6,153.2h-55.4c-0.6,0-1-0.4-1-1s0.4-1,1-1h55.4c0.6,0,1,0.4,1,1S214.2,153.2,213.6,153.2z"/>
<path class="st3" d="M243.7,138.9c-0.6,0-1-0.4-1-1v-34.6c0-0.6,0.4-1,1-1s1,0.4,1,1v34.6C244.7,138.5,244.3,138.9,243.7,138.9z"/>
<path class="st3" d="M136.6,153.2c-0.2,0-0.4,0-0.5-0.1l-53.8-31.9c-0.5-0.3-0.6-0.9-0.3-1.4c0.3-0.5,0.9-0.6,1.4-0.3l53.8,31.9
	c0.5,0.3,0.6,0.9,0.4,1.4C137.3,153,137,153.2,136.6,153.2z"/>
<path class="st3" d="M82.8,185.1c-0.6,0-1-0.4-1-1c0-0.4,0.2-0.7,0.5-0.9l53.8-31.9c0.5-0.3,1.1-0.1,1.4,0.4s0.1,1.1-0.4,1.4
	L83.3,185C83.2,185,83,185.1,82.8,185.1z"/>
<path class="st4" d="M154.2,169.3h-13.4c-2.5,0-4.5-2-4.5-4.5v-26.1c0-2.5,2-4.5,4.5-4.5h13.4c2.5,0,4.5,2,4.5,4.5v26.1
	C158.7,167.3,156.7,169.3,154.2,169.3z"/>
<path class="st1" d="M256.8,106h-26.1c-2.5,0-4.5-2-4.5-4.5V88.1c0-2.5,2-4.5,4.5-4.5h26.1c2.5,0,4.5,2,4.5,4.5v13.4
	C261.3,104,259.2,106,256.8,106z"/>
<path class="st5" d="M79.2,138.3H65.8c-2.5,0-4.5-2-4.5-4.5v-26.1c0-2.5,2-4.5,4.5-4.5h13.4c2.5,0,4.5,2,4.5,4.5v26.1
	C83.7,136.3,81.7,138.3,79.2,138.3z"/>
<path class="st6" d="M79.2,201.3H65.8c-2.5,0-4.5-2-4.5-4.5v-26.1c0-2.5,2-4.5,4.5-4.5h13.4c2.5,0,4.5,2,4.5,4.5v26.1
	C83.7,199.3,81.7,201.3,79.2,201.3z"/>
<path class="st3" d="M329.3,153.2h-55.4c-0.6,0-1-0.4-1-1s0.4-1,1-1h55.4c0.6,0,1,0.4,1,1S329.8,153.2,329.3,153.2z"/>
<path class="st3" d="M350.8,153.2c-0.6,0-1-0.4-1-1c0-0.4,0.2-0.7,0.5-0.9l53.8-31.9c0.5-0.3,1.1-0.1,1.4,0.4s0.1,1.1-0.4,1.4
	l-53.8,31.9C351.2,153.2,351,153.2,350.8,153.2z"/>
<path class="st3" d="M404.6,185.1c-0.2,0-0.4,0-0.5-0.1l-53.8-31.9c-0.5-0.3-0.6-0.9-0.4-1.4s0.9-0.6,1.4-0.4l53.8,31.9
	c0.5,0.3,0.6,0.9,0.4,1.4C405.3,184.9,405,185.1,404.6,185.1z"/>
<path class="st1" d="M346.6,169.3h-13.4c-2.5,0-4.5-2-4.5-4.5v-26.1c0-2.5,2-4.5,4.5-4.5h13.4c2.5,0,4.5,2,4.5,4.5v26.1
	C351.1,167.3,349.1,169.3,346.6,169.3z"/>
<path class="st6" d="M421.6,138.3h-13.4c-2.5,0-4.5-2-4.5-4.5v-26.1c0-2.5,2-4.5,4.5-4.5h13.4c2.5,0,4.5,2,4.5,4.5v26.1
	C426.1,136.3,424.1,138.3,421.6,138.3z"/>
<path class="st6" d="M421.6,201.3h-13.4c-2.5,0-4.5-2-4.5-4.5v-26.1c0-2.5,2-4.5,4.5-4.5h13.4c2.5,0,4.5,2,4.5,4.5v26.1
	C426.1,199.3,424.1,201.3,421.6,201.3z"/>
<path class="st6" d="M198.8,272.2h-26.1c-2.5,0-4.5-2-4.5-4.5v-13.4c0-2.5,2-4.5,4.5-4.5h26.1c2.5,0,4.5,2,4.5,4.5v13.4
	C203.3,270.2,201.2,272.2,198.8,272.2z"/>
<path class="st6" d="M314.6,272.2h-26.1c-2.5,0-4.5-2-4.5-4.5v-13.4c0-2.5,2-4.5,4.5-4.5h26.1c2.5,0,4.5,2,4.5,4.5v13.4
	C319.1,270.2,317.1,272.2,314.6,272.2z"/>
<path class="st7" d="M261.6,321.2h-26.1c-2.5,0-4.5-2-4.5-4.5v-13.4c0-2.5,2-4.5,4.5-4.5h26.1c2.5,0,4.5,2,4.5,4.5v13.4
	C266.1,319.2,264.1,321.2,261.6,321.2z"/>
<path class="st8" d="M372.6,321.2h-26.1c-2.5,0-4.5-2-4.5-4.5v-13.4c0-2.5,2-4.5,4.5-4.5h26.1c2.5,0,4.5,2,4.5,4.5v13.4
	C377.1,319.2,375.1,321.2,372.6,321.2z"/>
<path class="st8" d="M314.6,321.2h-26.1c-2.5,0-4.5-2-4.5-4.5v-13.4c0-2.5,2-4.5,4.5-4.5h26.1c2.5,0,4.5,2,4.5,4.5v13.4
	C319.1,319.2,317.1,321.2,314.6,321.2z"/>
<path class="st9" d="M275.4,169.6h-63.3c-2.5,0-4.5-2-4.5-4.5v-25.8c0-2.5,2-4.5,4.5-4.5h63.3c2.5,0,4.5,2,4.5,4.5v25.8
	C279.9,167.6,277.9,169.6,275.4,169.6z"/>
</svg>
