<svg id="Layer_1" data-name="Layer 1" xmlns="http://www.w3.org/2000/svg" viewBox="0 0 1171.07 883.72"><defs><style>.cls-1,.cls-11{fill:#f4f4f4;}.cls-2{fill:#dcdcdc;}.cls-3{fill:#167ebe;}.cls-4{fill:#f3f3f3;}.cls-12,.cls-21,.cls-5,.cls-6,.cls-7{fill:#fff;}.cls-17,.cls-18,.cls-5{opacity:0.2;}.cls-10,.cls-11,.cls-14,.cls-18,.cls-21,.cls-23,.cls-5,.cls-6,.cls-7{isolation:isolate;}.cls-6{opacity:0.7;}.cls-7{opacity:0.9;}.cls-8{fill:#fc9d9d;}.cls-10,.cls-9{opacity:0.15;}.cls-11{opacity:0.5;}.cls-13,.cls-14{opacity:0.3;}.cls-14,.cls-20{fill:#61656d;}.cls-15{fill:#3f4249;}.cls-16{fill:#21252b;}.cls-19{fill:#f59696;}.cls-21{opacity:0.8;}.cls-22{fill:#fb9c9c;}.cls-23{opacity:0.6;}.cls-24{fill:#84888f;}.cls-25{fill:#fa9b9b;}.cls-26{fill:#868a91;}</style></defs><path class="cls-1" d="M320.31,1041.42a48.91,48.91,0,0,1-48.45-42.23L215,586.47a56,56,0,0,1,12-43l240.66-296.3a56,56,0,0,1,34.81-20l439.72-68.8a56,56,0,0,1,43.07,11.14L1364,464.43a56,56,0,0,1,18.88,61.39L1226,1011.41a43.28,43.28,0,0,1-41.18,30Z" transform="translate(-214.47 -157.7)"/><path class="cls-2" d="M917.86,240.55,786.31,267.44a11.5,11.5,0,0,0-8.6,7.62L735.22,402.43a11.48,11.48,0,0,0,2.3,11.26l89.06,100.48a11.49,11.49,0,0,0,10.9,3.64L969,490.92a11.5,11.5,0,0,0,8.6-7.62l42.49-127.37a11.48,11.48,0,0,0-2.3-11.26l-89-100.48a11.49,11.49,0,0,0-10.9-3.64Z" transform="translate(-214.47 -157.7)"/><path class="cls-3" d="M850.76,383.44,844,386l-19.16,9.8c-.11.17-8,2.31-5.77,12.67.35,1.59.71,3.22,1.09,4.86,5.49,23.83,2.78,29.35,6.11,44.45,4.73,21.53,25.7,18.84,35.48,40.73,16.63,37.24,13.2,64.22,13.2,64.22l121.67-41.24s0-.91-1.73-4.32a148,148,0,0,0-9-14.69c-11.63-17.24-23.39-72-23.39-72l-5.32-35.86c-3.33-22.46-47.42-31.08-47.42-31.08Z" transform="translate(-214.47 -157.7)"/><path class="cls-4" d="M851.62,438.79a1.45,1.45,0,0,0,.85-.1,1.48,1.48,0,0,0,.66-.55,1.54,1.54,0,0,0,.24-.83,1.51,1.51,0,0,0-.27-.82,1.46,1.46,0,0,0-.67-.53,1.48,1.48,0,0,0-.86-.07,1.51,1.51,0,0,0-.75.41,1.53,1.53,0,0,0-.39.77,1.42,1.42,0,0,0,0,.58,1.48,1.48,0,0,0,.23.53,1.5,1.5,0,0,0,1,.61Z" transform="translate(-214.47 -157.7)"/><path class="cls-4" d="M925.45,419.05a1.45,1.45,0,0,0,.85-.1,1.47,1.47,0,0,0,.9-1.38,1.51,1.51,0,0,0-.27-.82,1.48,1.48,0,0,0-1.53-.6,1.45,1.45,0,0,0-1.14,1.18,1.42,1.42,0,0,0,0,.58,1.48,1.48,0,0,0,.23.53,1.5,1.5,0,0,0,1,.61Z" transform="translate(-214.47 -157.7)"/><path class="cls-4" d="M928.07,391.92a1.45,1.45,0,0,0,.85-.1,1.48,1.48,0,0,0,.66-.55,1.54,1.54,0,0,0,.24-.83,1.51,1.51,0,0,0-.27-.82,1.46,1.46,0,0,0-.67-.53,1.48,1.48,0,0,0-1.61.35,1.46,1.46,0,0,0-.39.76,1.42,1.42,0,0,0,0,.58,1.48,1.48,0,0,0,.23.53,1.5,1.5,0,0,0,1,.61Z" transform="translate(-214.47 -157.7)"/><path class="cls-4" d="M823.94,406.15a1.45,1.45,0,0,0,.85-.1,1.48,1.48,0,0,0,.66-.55,1.54,1.54,0,0,0,.24-.83,1.51,1.51,0,0,0-.27-.82,1.46,1.46,0,0,0-.67-.53,1.48,1.48,0,0,0-.86-.07,1.52,1.52,0,0,0-.75.42,1.46,1.46,0,0,0-.39.76,1.42,1.42,0,0,0,0,.58,1.48,1.48,0,0,0,.23.53,1.49,1.49,0,0,0,.42.41,1.47,1.47,0,0,0,.54.2Z" transform="translate(-214.47 -157.7)"/><path class="cls-4" d="M856.58,466.58a1.45,1.45,0,0,0,.85-.1,1.48,1.48,0,0,0,.66-.55,1.54,1.54,0,0,0,.24-.83,1.51,1.51,0,0,0-.27-.82,1.46,1.46,0,0,0-.67-.53,1.48,1.48,0,0,0-.86-.07,1.52,1.52,0,0,0-.75.42,1.46,1.46,0,0,0-.39.76,1.42,1.42,0,0,0,0,.58,1.48,1.48,0,0,0,.23.53,1.37,1.37,0,0,0,.42.41,1.47,1.47,0,0,0,.54.2Z" transform="translate(-214.47 -157.7)"/><path class="cls-4" d="M836.69,452.64a1.45,1.45,0,0,0,.85-.1,1.48,1.48,0,0,0,.66-.55,1.54,1.54,0,0,0,.24-.83,1.51,1.51,0,0,0-.27-.82,1.46,1.46,0,0,0-.67-.53,1.48,1.48,0,0,0-.86-.07,1.52,1.52,0,0,0-.75.42,1.46,1.46,0,0,0-.39.76,1.42,1.42,0,0,0,0,.58,1.48,1.48,0,0,0,.23.53,1.37,1.37,0,0,0,.42.41,1.47,1.47,0,0,0,.54.2Z" transform="translate(-214.47 -157.7)"/><path class="cls-4" d="M874.59,435.83a1.46,1.46,0,0,0,.85-.1,1.48,1.48,0,0,0,.66-.55,1.54,1.54,0,0,0,.24-.83,1.51,1.51,0,0,0-.27-.82,1.46,1.46,0,0,0-.67-.53,1.48,1.48,0,0,0-.86-.07,1.52,1.52,0,0,0-.75.42,1.46,1.46,0,0,0-.39.76,1.42,1.42,0,0,0,0,.58,1.48,1.48,0,0,0,.23.53,1.24,1.24,0,0,0,.42.4,1.33,1.33,0,0,0,.54.21Z" transform="translate(-214.47 -157.7)"/><path class="cls-4" d="M933.88,438.79a1.45,1.45,0,0,0,.85-.1,1.48,1.48,0,0,0,.66-.55,1.54,1.54,0,0,0,.24-.83,1.51,1.51,0,0,0-.27-.82,1.46,1.46,0,0,0-.67-.53,1.48,1.48,0,0,0-.86-.07,1.51,1.51,0,0,0-.75.41,1.53,1.53,0,0,0-.39.77,1.42,1.42,0,0,0,0,.58,1.48,1.48,0,0,0,.23.53,1.5,1.5,0,0,0,1,.61Z" transform="translate(-214.47 -157.7)"/><path class="cls-4" d="M923.28,457.41a1.46,1.46,0,0,0,.85-.1,1.48,1.48,0,0,0,.66-.55,1.54,1.54,0,0,0,.24-.83,1.51,1.51,0,0,0-.27-.82,1.46,1.46,0,0,0-.67-.53,1.48,1.48,0,0,0-.86-.07,1.41,1.41,0,0,0-.75.42,1.46,1.46,0,0,0-.39.76,1.42,1.42,0,0,0,0,.58,1.48,1.48,0,0,0,.23.53,1.5,1.5,0,0,0,1,.61Z" transform="translate(-214.47 -157.7)"/><path class="cls-4" d="M875.85,477.17a1.46,1.46,0,0,0,.85-.1,1.48,1.48,0,0,0,.66-.55,1.54,1.54,0,0,0,.24-.83,1.51,1.51,0,0,0-.27-.82,1.46,1.46,0,0,0-.67-.53,1.48,1.48,0,0,0-.86-.07,1.52,1.52,0,0,0-.75.42,1.46,1.46,0,0,0-.39.76,1.42,1.42,0,0,0,0,.58,1.48,1.48,0,0,0,.23.53,1.5,1.5,0,0,0,1,.61Z" transform="translate(-214.47 -157.7)"/><path class="cls-4" d="M906.26,403.82a1.46,1.46,0,0,0,.85-.1,1.48,1.48,0,0,0,.66-.55,1.54,1.54,0,0,0,.24-.83,1.51,1.51,0,0,0-.27-.82,1.46,1.46,0,0,0-.67-.53,1.48,1.48,0,0,0-.86-.07,1.48,1.48,0,0,0-1.14,1.18,1.42,1.42,0,0,0,0,.58,1.48,1.48,0,0,0,.23.53,1.37,1.37,0,0,0,.42.41,1.47,1.47,0,0,0,.54.2Z" transform="translate(-214.47 -157.7)"/><path class="cls-4" d="M929.55,374.72a1.45,1.45,0,0,0,.85-.1,1.48,1.48,0,0,0,.66-.55,1.54,1.54,0,0,0,.24-.83,1.51,1.51,0,0,0-.27-.82,1.4,1.4,0,0,0-.67-.53,1.48,1.48,0,0,0-.86-.07,1.51,1.51,0,0,0-.75.41,1.53,1.53,0,0,0-.39.77,1.42,1.42,0,0,0,0,.58,1.48,1.48,0,0,0,.23.53,1.5,1.5,0,0,0,1,.61Z" transform="translate(-214.47 -157.7)"/><path class="cls-4" d="M856.09,402.33a1.46,1.46,0,0,0,.85-.1,1.48,1.48,0,0,0,.66-.55,1.54,1.54,0,0,0,.24-.83,1.51,1.51,0,0,0-.27-.82,1.46,1.46,0,0,0-.67-.53,1.48,1.48,0,0,0-.86-.07,1.52,1.52,0,0,0-.75.42,1.46,1.46,0,0,0-.39.76,1.42,1.42,0,0,0,0,.58,1.48,1.48,0,0,0,.23.53,1.24,1.24,0,0,0,.42.4,1.33,1.33,0,0,0,.54.21Z" transform="translate(-214.47 -157.7)"/><path class="cls-4" d="M902,456.8a1.45,1.45,0,0,0,.85-.1,1.47,1.47,0,0,0,.9-1.38,1.51,1.51,0,0,0-.27-.82,1.48,1.48,0,0,0-1.53-.6,1.45,1.45,0,0,0-1.14,1.18,1.42,1.42,0,0,0,0,.58,1.48,1.48,0,0,0,.23.53,1.5,1.5,0,0,0,1,.61Z" transform="translate(-214.47 -157.7)"/><path class="cls-4" d="M879.32,458.89a1.45,1.45,0,0,0,.85-.1,1.48,1.48,0,0,0,.66-.55,1.54,1.54,0,0,0,.24-.83,1.51,1.51,0,0,0-.27-.82,1.46,1.46,0,0,0-.67-.53,1.48,1.48,0,0,0-1.61.35,1.46,1.46,0,0,0-.39.76,1.62,1.62,0,0,0,0,.58,1.44,1.44,0,0,0,.65.94A1.59,1.59,0,0,0,879.32,458.89Z" transform="translate(-214.47 -157.7)"/><path class="cls-4" d="M893,424.3a1.45,1.45,0,0,0,.85-.1,1.47,1.47,0,0,0,.9-1.38,1.51,1.51,0,0,0-.27-.82,1.48,1.48,0,0,0-1.53-.6,1.45,1.45,0,0,0-1.14,1.18,1.42,1.42,0,0,0,0,.58,1.48,1.48,0,0,0,.23.53,1.5,1.5,0,0,0,1,.61Z" transform="translate(-214.47 -157.7)"/><path class="cls-4" d="M911.76,434.84a1.46,1.46,0,0,0,.85-.1,1.48,1.48,0,0,0,.66-.55,1.54,1.54,0,0,0,.24-.83,1.51,1.51,0,0,0-.27-.82,1.4,1.4,0,0,0-.67-.53,1.48,1.48,0,0,0-.86-.07,1.48,1.48,0,0,0-1.14,1.18,1.42,1.42,0,0,0,0,.58,1.48,1.48,0,0,0,.23.53,1.49,1.49,0,0,0,.42.41,1.47,1.47,0,0,0,.54.2Z" transform="translate(-214.47 -157.7)"/><path class="cls-4" d="M873.11,415.51a1.45,1.45,0,0,0,.85-.1,1.48,1.48,0,0,0,.66-.55,1.54,1.54,0,0,0,.24-.83,1.51,1.51,0,0,0-.27-.82,1.46,1.46,0,0,0-.67-.53,1.48,1.48,0,0,0-.86-.07,1.59,1.59,0,0,0-.75.41,1.53,1.53,0,0,0-.39.77,1.42,1.42,0,0,0,0,.58,1.48,1.48,0,0,0,.23.53,1.5,1.5,0,0,0,1,.61Z" transform="translate(-214.47 -157.7)"/><path class="cls-4" d="M884.39,401.62a1.46,1.46,0,0,0,.85-.1,1.48,1.48,0,0,0,.66-.55,1.54,1.54,0,0,0,.24-.83,1.51,1.51,0,0,0-.27-.82,1.48,1.48,0,0,0-1.53-.6,1.48,1.48,0,0,0-1.14,1.18,1.42,1.42,0,0,0,0,.58,1.48,1.48,0,0,0,.23.53,1.5,1.5,0,0,0,1,.61Z" transform="translate(-214.47 -157.7)"/><path class="cls-4" d="M911.32,383a1.45,1.45,0,0,0,.85-.1,1.48,1.48,0,0,0,.66-.55,1.54,1.54,0,0,0,.24-.83,1.51,1.51,0,0,0-.27-.82,1.46,1.46,0,0,0-.67-.53,1.48,1.48,0,0,0-.86-.07,1.41,1.41,0,0,0-.75.42,1.46,1.46,0,0,0-.39.76,1.42,1.42,0,0,0,0,.58,1.48,1.48,0,0,0,.23.53,1.49,1.49,0,0,0,.42.41A1.47,1.47,0,0,0,911.32,383Z" transform="translate(-214.47 -157.7)"/><path class="cls-3" d="M635.15,486.05h412.67a5.33,5.33,0,0,1,5.19,6.51L995.69,745.34a5.32,5.32,0,0,1-5.19,4.14H577.83a5.33,5.33,0,0,1-5.19-6.51L630,490.19a5.3,5.3,0,0,1,5.15-4.14Z" transform="translate(-214.47 -157.7)"/><path class="cls-5" d="M635.15,486.05h412.67a5.33,5.33,0,0,1,5.19,6.51L995.69,745.34a5.32,5.32,0,0,1-5.19,4.14H577.83a5.33,5.33,0,0,1-5.19-6.51L630,490.19a5.3,5.3,0,0,1,5.15-4.14Z" transform="translate(-214.47 -157.7)"/><path class="cls-3" d="M625.83,486.05H1038.5a5.33,5.33,0,0,1,5.19,6.51L986.37,745.34a5.32,5.32,0,0,1-5.19,4.14H568.52a5.33,5.33,0,0,1-5.19-6.51l57.32-252.78a5.4,5.4,0,0,1,1.87-3A5.29,5.29,0,0,1,625.83,486.05Z" transform="translate(-214.47 -157.7)"/><path class="cls-6" d="M625.83,486.05H1038.5a5.33,5.33,0,0,1,5.19,6.51L986.37,745.34a5.32,5.32,0,0,1-5.19,4.14H568.52a5.33,5.33,0,0,1-5.19-6.51l57.32-252.78a5.4,5.4,0,0,1,1.87-3A5.29,5.29,0,0,1,625.83,486.05Z" transform="translate(-214.47 -157.7)"/><path class="cls-3" d="M720,535.07H639.1a5.26,5.26,0,0,1-5.25-5.25l5.22-20.19a5.26,5.26,0,0,1,5.25-5.25h80.9a5.26,5.26,0,0,1,5.25,5.25l-5.22,20.19a5.26,5.26,0,0,1-5.25,5.25Zm-75.69-29.35a3.93,3.93,0,0,0-3.92,3.92l-5.22,20.19a3.93,3.93,0,0,0,3.92,3.92H720a3.93,3.93,0,0,0,3.92-3.92l5.22-20.19a3.93,3.93,0,0,0-3.92-3.92Z" transform="translate(-214.47 -157.7)"/><path class="cls-3" d="M833.5,535.07H752.6a5.26,5.26,0,0,1-5.25-5.25l5.22-20.19a5.26,5.26,0,0,1,5.25-5.25h80.9a5.26,5.26,0,0,1,5.25,5.25l-5.22,20.19a5.26,5.26,0,0,1-5.25,5.25Zm-75.69-29.35a3.93,3.93,0,0,0-3.92,3.92l-5.22,20.19a3.93,3.93,0,0,0,3.92,3.92h80.9a3.93,3.93,0,0,0,3.92-3.92l5.22-20.19a3.93,3.93,0,0,0-3.92-3.92Z" transform="translate(-214.47 -157.7)"/><path class="cls-3" d="M822.7,576H706a4.08,4.08,0,0,1-4.08-4.08h0a4.06,4.06,0,0,1,4.08-4.08H822.7a4.06,4.06,0,0,1,4.08,4.08h0A4.08,4.08,0,0,1,822.7,576Z" transform="translate(-214.47 -157.7)"/><path class="cls-3" d="M754.76,607.2H702.18a4.08,4.08,0,0,1-2.89-1.2,4.36,4.36,0,0,1-.88-1.32,4.08,4.08,0,0,1,0-3.12,4.28,4.28,0,0,1,.88-1.33,4,4,0,0,1,1.33-.88,4.13,4.13,0,0,1,1.56-.31h52.58a4.13,4.13,0,0,1,1.56.31,4,4,0,0,1,1.33.88,4.13,4.13,0,0,1,1.19,2.89,4.08,4.08,0,0,1-4.08,4.08Z" transform="translate(-214.47 -157.7)"/><path class="cls-7" d="M822.7,576H706a4.08,4.08,0,0,1-4.08-4.08h0a4.06,4.06,0,0,1,4.08-4.08H822.7a4.06,4.06,0,0,1,4.08,4.08h0A4.08,4.08,0,0,1,822.7,576Z" transform="translate(-214.47 -157.7)"/><path class="cls-7" d="M754.76,607.2H702.18a4.08,4.08,0,0,1-2.89-1.2,4.36,4.36,0,0,1-.88-1.32,4.08,4.08,0,0,1,0-3.12,4.28,4.28,0,0,1,.88-1.33,4,4,0,0,1,1.33-.88,4.13,4.13,0,0,1,1.56-.31h52.58a4.13,4.13,0,0,1,1.56.31,4,4,0,0,1,1.33.88,4.13,4.13,0,0,1,1.19,2.89,4.08,4.08,0,0,1-4.08,4.08Z" transform="translate(-214.47 -157.7)"/><path class="cls-3" d="M856.91,576h-14a4.08,4.08,0,1,1,0-8.16h14a4.08,4.08,0,0,1,4.08,4.08h0a4.1,4.1,0,0,1-4.08,4.08Z" transform="translate(-214.47 -157.7)"/><path class="cls-3" d="M680.27,580.29H669.7a3,3,0,0,1-2.36-1.12,3.06,3.06,0,0,1-.61-1.19,3,3,0,0,1,0-1.34l2.12-10.7a3,3,0,0,1,3-2.46H682.4a3.13,3.13,0,0,1,1.31.29,3.25,3.25,0,0,1,1,.83,3,3,0,0,1,.6,1.19,3,3,0,0,1,0,1.34l-2.12,10.7a3.07,3.07,0,0,1-3,2.46Z" transform="translate(-214.47 -157.7)"/><path class="cls-7" d="M680.27,580.29H669.7a3,3,0,0,1-2.36-1.12,3.06,3.06,0,0,1-.61-1.19,3,3,0,0,1,0-1.34l2.12-10.7a3,3,0,0,1,3-2.46H682.4a3.13,3.13,0,0,1,1.31.29,3.25,3.25,0,0,1,1,.83,3,3,0,0,1,.6,1.19,3,3,0,0,1,0,1.34l-2.12,10.7a3.07,3.07,0,0,1-3,2.46Z" transform="translate(-214.47 -157.7)"/><path class="cls-3" d="M674.7,610.54H664.12a3,3,0,0,1-2.36-1.12,3.08,3.08,0,0,1-.64-2.53l2.12-10.7a3,3,0,0,1,3-2.46h10.58a3,3,0,0,1,2.36,1.12,3,3,0,0,1,.6,1.19,2.89,2.89,0,0,1,0,1.34l-2.12,10.7a3,3,0,0,1-3,2.46Z" transform="translate(-214.47 -157.7)"/><path class="cls-2" d="M288.64,770.19a125.19,125.19,0,1,1,13.15,47,125.18,125.18,0,0,1-13.15-47Z" transform="translate(-214.47 -157.7)"/><path class="cls-8" d="M539.69,704.3l18.09-2.13a3.1,3.1,0,0,1,1.59.24,3,3,0,0,1,1.25,1,3,3,0,0,1,.59,1.49,3.09,3.09,0,0,1-.25,1.59l-2,4.39a6.81,6.81,0,0,1-3.86,3.64l-23.65,8.8L541,702.81" transform="translate(-214.47 -157.7)"/><g class="cls-9"><path class="cls-10" d="M539.69,704.3l18.09-2.13a3.1,3.1,0,0,1,1.59.24,3,3,0,0,1,1.25,1,3,3,0,0,1,.59,1.49,3.09,3.09,0,0,1-.25,1.59l-2,4.39a6.81,6.81,0,0,1-3.86,3.64l-23.65,8.8" transform="translate(-214.47 -157.7)"/></g><path class="cls-3" d="M615.08,814.6l-86-47.6a4.18,4.18,0,0,1-1.26-1.07,4,4,0,0,1-.73-1.47,4.09,4.09,0,0,1,.44-3.2L594.1,649.52a4.11,4.11,0,0,1,5.42-1.55l87.54,45.12a4.11,4.11,0,0,1,1.29,1,4.17,4.17,0,0,1,.78,1.47,4.27,4.27,0,0,1,.12,1.67,4,4,0,0,1-.54,1.57L620.64,813.1a4.13,4.13,0,0,1-5.56,1.5Z" transform="translate(-214.47 -157.7)"/><path class="cls-11" d="M615.08,814.6l-86-47.6a4.18,4.18,0,0,1-1.26-1.07,4,4,0,0,1-.73-1.47,4.09,4.09,0,0,1,.44-3.2L594.1,649.52a4.11,4.11,0,0,1,5.42-1.55l87.54,45.12a4.11,4.11,0,0,1,1.29,1,4.17,4.17,0,0,1,.78,1.47,4.27,4.27,0,0,1,.12,1.67,4,4,0,0,1-.54,1.57L620.64,813.1a4.13,4.13,0,0,1-5.56,1.5Z" transform="translate(-214.47 -157.7)"/><path class="cls-12" d="M610.73,812.32l-86-47.6a4.18,4.18,0,0,1-1.26-1.07,4,4,0,0,1-.73-1.47,4.18,4.18,0,0,1-.11-1.65,4.29,4.29,0,0,1,.55-1.55l66.57-111.74a4.11,4.11,0,0,1,5.42-1.55l87.54,45.12a4,4,0,0,1,1.29,1.05,4.09,4.09,0,0,1,.78,1.47,4.24,4.24,0,0,1,.12,1.66,4,4,0,0,1-.54,1.58L616.29,810.83a4.14,4.14,0,0,1-5.56,1.49Z" transform="translate(-214.47 -157.7)"/><path class="cls-8" d="M517.08,726.41l11.73-19.92a12.61,12.61,0,0,1,7.14-5.66l20.65-6.46a2.62,2.62,0,0,1,3.24,1.52,2.62,2.62,0,0,1-1.29,3.33l-16.88,8.43-7.69,15a1.71,1.71,0,0,0-.16,1.13,1.74,1.74,0,0,0,.58,1,1.71,1.71,0,0,0,1.07.41,1.79,1.79,0,0,0,1.09-.34l7.73-5.7a6,6,0,0,1,8.07,1,1.53,1.53,0,0,1,0,1.92L524.5,755.19l-28.6-8.78Z" transform="translate(-214.47 -157.7)"/><g class="cls-13"><path class="cls-14" d="M551.55,753.64a.5.5,0,0,1-.24-.06l-12.63-6.92a.47.47,0,0,1-.15-.13.51.51,0,0,1-.09-.18.5.5,0,0,1,0-.21.52.52,0,0,1,.08-.19l7.59-12.06a.47.47,0,0,1,.3-.21.45.45,0,0,1,.36,0l12.64,6.92a.47.47,0,0,1,.15.13.61.61,0,0,1,.09.18.5.5,0,0,1,0,.21.46.46,0,0,1-.08.19L552,753.41a.47.47,0,0,1-.45.23ZM539.63,746l11.75,6.44,7.06-11.22-11.76-6.44Z" transform="translate(-214.47 -157.7)"/></g><g class="cls-13"><path class="cls-14" d="M562.84,735.72a.5.5,0,0,1-.24-.06L550,728.74a.47.47,0,0,1-.15-.13.51.51,0,0,1-.09-.18.5.5,0,0,1,0-.21.77.77,0,0,1,.08-.19l7.6-12.06a.47.47,0,0,1,.3-.21.45.45,0,0,1,.36,0l12.63,6.92a.47.47,0,0,1,.15.13.61.61,0,0,1,.09.18.5.5,0,0,1,0,.21.46.46,0,0,1-.08.19l-7.59,12.06a.49.49,0,0,1-.2.18.47.47,0,0,1-.26.05Zm-11.93-7.6,11.76,6.44,7.05-11.22L558,716.9Z" transform="translate(-214.47 -157.7)"/></g><path class="cls-3" d="M547.34,747.66l-.7-5.66a.56.56,0,0,1,.13-.41.59.59,0,0,1,.36-.22l1.49-.18a.61.61,0,0,1,.41.13.65.65,0,0,1,.22.36l.45,3.64,8.79-1.1a.61.61,0,0,1,.41.13.65.65,0,0,1,.22.36l.18,1.49a.6.6,0,0,1-.12.41.55.55,0,0,1-.37.22L548,748.17a.6.6,0,0,1-.23,0,.54.54,0,0,1-.2-.1.46.46,0,0,1-.14-.17.57.57,0,0,1-.07-.22" transform="translate(-214.47 -157.7)"/><path class="cls-3" d="M558.77,729.73l-.7-5.66a.56.56,0,0,1,.13-.41.57.57,0,0,1,.36-.22l1.49-.18a.6.6,0,0,1,.41.12.59.59,0,0,1,.22.37l.45,3.64,8.79-1.1a.6.6,0,0,1,.41.12.62.62,0,0,1,.22.37l.18,1.49a.6.6,0,0,1-.12.41.55.55,0,0,1-.37.22l-10.83,1.34a.57.57,0,0,1-.64-.51" transform="translate(-214.47 -157.7)"/><path class="cls-14" d="M599.05,777.26l-39.36-21.87a1,1,0,0,1-.5-.64,1,1,0,0,1,.09-.81h0a1.07,1.07,0,0,1,.64-.5,1,1,0,0,1,.81.09l39.36,21.87a1,1,0,0,1,.5.64,1,1,0,0,1-.09.81h0a1.11,1.11,0,0,1-.64.5A1.09,1.09,0,0,1,599.05,777.26Z" transform="translate(-214.47 -157.7)"/><path class="cls-14" d="M583.4,762.7,562.27,751a1,1,0,0,1-.5-.64,1,1,0,0,1,.09-.81,1,1,0,0,1,.64-.5,1,1,0,0,1,.81.09l21.13,11.72a1,1,0,0,1,.5.64,1,1,0,0,1-.09.81h0a1,1,0,0,1-.27.31,1.09,1.09,0,0,1-.37.19,1.19,1.19,0,0,1-.42,0,.9.9,0,0,1-.39-.13Z" transform="translate(-214.47 -157.7)"/><path class="cls-14" d="M610.09,758.14l-39.36-21.87a1,1,0,0,1-.5-.64,1,1,0,0,1,.09-.81h0a1,1,0,0,1,.64-.5,1,1,0,0,1,.81.09l39.36,21.87a1,1,0,0,1,.5.64,1,1,0,0,1-.09.81,1.11,1.11,0,0,1-.64.5A1.09,1.09,0,0,1,610.09,758.14Z" transform="translate(-214.47 -157.7)"/><path class="cls-14" d="M594.44,743.58l-21.13-11.72a1,1,0,0,1-.5-.64,1,1,0,0,1,.09-.81h0a1,1,0,0,1,.64-.5,1,1,0,0,1,.81.09l21.13,11.72a1,1,0,0,1,.5.64,1,1,0,0,1-.09.81,1.07,1.07,0,0,1-.64.5A1,1,0,0,1,594.44,743.58Z" transform="translate(-214.47 -157.7)"/><path d="M634.07,758.32a.45.45,0,0,1-.25-.07c-2.8-1.64-6.19-1.92-9.17-2.16s-5.47-.45-6.25-2.1.54-7.47,2.8-16.71c2.83-11.53,6.71-27.33,3-29.33-2.19-1.16-7.63,1.91-11.61,4.15-1.56.88-2.91,1.64-4,2.11h-.1a5.2,5.2,0,0,1-2.43.41,5.29,5.29,0,0,1-2.35-.75,5.82,5.82,0,0,1-2.8-4.45c-.32-3.39.34-8.2,1-12.86.87-6.34,1.85-13.53-.34-14.7-2.49-1.31-9.9,4.9-14.33,8.62-1.6,1.35-3,2.51-3.87,3.1-3.86,2.63-8.82,1.2-9,1.14a.48.48,0,0,1-.31-.25.49.49,0,0,1,0-.39.55.55,0,0,1,.25-.31.49.49,0,0,1,.39,0s4.72,1.35,8.19-1c.83-.57,2.2-1.72,3.79-3,6.51-5.46,12.59-10.25,15.44-8.73s1.9,8.09.86,15.72c-.63,4.6-1.28,9.35-1,12.62a4.86,4.86,0,0,0,2.31,3.69,4.25,4.25,0,0,0,3.86.29h.1c1-.45,2.4-1.24,3.87-2.07,4.42-2.49,9.91-5.59,12.59-4.16,4.42,2.37.76,17.28-2.48,30.45-1.75,7.16-3.57,14.56-2.87,16.05.53,1.12,2.8,1.31,5.43,1.52,2.94.24,6.6.54,9.59,2.3a.54.54,0,0,1,.21.24.5.5,0,0,1-.16.59.54.54,0,0,1-.3.1Z" transform="translate(-214.47 -157.7)"/><path class="cls-3" d="M601.64,682.9a1.5,1.5,0,1,0-1.5-1.5A1.5,1.5,0,0,0,601.64,682.9Z" transform="translate(-214.47 -157.7)"/><path class="cls-3" d="M613.72,712.33a1.5,1.5,0,1,0-1.5-1.5A1.5,1.5,0,0,0,613.72,712.33Z" transform="translate(-214.47 -157.7)"/><path class="cls-3" d="M628.36,757.52a1.5,1.5,0,1,0-1.5-1.5A1.5,1.5,0,0,0,628.36,757.52Z" transform="translate(-214.47 -157.7)"/><path d="M660.15,671l-8.2-4.51a12.14,12.14,0,0,0-1.17-13.42,12.19,12.19,0,0,0-3.62-3,12.12,12.12,0,0,0-16.46,4.79l-8.2-4.51a1.94,1.94,0,0,0-.75-.24,1.87,1.87,0,0,0-.78.07,2,2,0,0,0-.7.36,2.08,2.08,0,0,0-.5.6l-10,18.29a2,2,0,0,0-.24.75,1.87,1.87,0,0,0,.07.78,2,2,0,0,0,.36.7,2.08,2.08,0,0,0,.6.5l37.65,20.69a2,2,0,0,0,.75.24,1.87,1.87,0,0,0,.78-.07,2,2,0,0,0,.7-.36,2.08,2.08,0,0,0,.5-.6l10-18.29a1.82,1.82,0,0,0,.23-.76,2.06,2.06,0,0,0-.45-1.48,2,2,0,0,0-.62-.49ZM645,662.62a4.17,4.17,0,0,1-1.74,1.69,4.15,4.15,0,0,1-4.61-.51,4.16,4.16,0,0,1-1.3-4.46,4.17,4.17,0,0,1,3.63-2.9,4.16,4.16,0,0,1,2.37.5,4.19,4.19,0,0,1,1.65,5.68Z" transform="translate(-214.47 -157.7)"/><path class="cls-12" d="M617.5,664.85l33,18.14a2.08,2.08,0,0,1,.6.5,2,2,0,0,1,.36.7,1.89,1.89,0,0,1,.07.78,1.94,1.94,0,0,1-.24.75l-1.49,2.7a2.08,2.08,0,0,1-.5.6,2.14,2.14,0,0,1-.7.37,2,2,0,0,1-.78.06,1.94,1.94,0,0,1-.75-.24l-33-18.14a2.08,2.08,0,0,1-.6-.5,2,2,0,0,1-.36-.7,1.87,1.87,0,0,1-.07-.78,2,2,0,0,1,.24-.75l1.49-2.7a2.08,2.08,0,0,1,.5-.6,2,2,0,0,1,.7-.36,1.87,1.87,0,0,1,.78-.07A1.94,1.94,0,0,1,617.5,664.85Z" transform="translate(-214.47 -157.7)"/><path class="cls-3" d="M469.6,758.72l40.17-25.41,17.71,18.32-45.83,58.9Z" transform="translate(-214.47 -157.7)"/><path class="cls-8" d="M631.7,764.3,616.42,758a2.77,2.77,0,0,0-2.79.38,2.74,2.74,0,0,0-.88,1.17,2.87,2.87,0,0,0-.17,1.45l.62,4.32a6.17,6.17,0,0,0,.83,2.31,6.1,6.1,0,0,0,1.65,1.82l18.5,13.49-3.3-20.26" transform="translate(-214.47 -157.7)"/><path class="cls-10" d="M631.7,764.3,616.42,758a2.77,2.77,0,0,0-2.79.38,2.74,2.74,0,0,0-.88,1.17,2.87,2.87,0,0,0-.17,1.45l.62,4.32a6.17,6.17,0,0,0,.83,2.31,6.1,6.1,0,0,0,1.65,1.82l18.5,13.49-3.3-20.26" transform="translate(-214.47 -157.7)"/><path class="cls-8" d="M638.62,783.29l-3.61-8.9a2,2,0,0,1,0-1.39,109.69,109.69,0,0,0,3-11.25,2,2,0,0,0-.23-1.35,2,2,0,0,0-1-.89c-3.89-1.47-14.34-5.37-15.44-5.3a2.31,2.31,0,0,0-1.52.63,2.37,2.37,0,0,0-.76,1.46c-.63,4.83,8.57,7.64,8.57,7.64L620,775.87a1.58,1.58,0,0,1-2,.29,1.69,1.69,0,0,1-.67-.8,1.58,1.58,0,0,1,0-1.05l2.59-8.32a5.39,5.39,0,0,0-3.21-6.64,1.35,1.35,0,0,0-1.65.56l-20.18,33.74,16,21.93,27.32-30.16a2,2,0,0,0,.52-1A2,2,0,0,0,638.62,783.29Z" transform="translate(-214.47 -157.7)"/><path class="cls-15" d="M609.83,741.44a.41.41,0,0,0-.22.23.44.44,0,0,0,0,.32l.58,1.33L611,743l-.58-1.33a.38.38,0,0,0-.09-.15.65.65,0,0,0-.15-.1l-.18,0a.48.48,0,0,0-.17.05Z" transform="translate(-214.47 -157.7)"/><path d="M609.83,741.44a.41.41,0,0,0-.22.23.44.44,0,0,0,0,.32l.58,1.33L611,743l-.58-1.33a.38.38,0,0,0-.09-.15.65.65,0,0,0-.15-.1l-.18,0a.48.48,0,0,0-.17.05Z" transform="translate(-214.47 -157.7)"/><path class="cls-15" d="M619.22,754.31l-1.66.72,23.63,54.15,1.29-.56a.41.41,0,0,0,.21-.54Z" transform="translate(-214.47 -157.7)"/><path class="cls-15" d="M616.8,755.35l-4,1.72,23.46,53.77a.41.41,0,0,0,.54.21l3.58-1.55Z" transform="translate(-214.47 -157.7)"/><path d="M619.22,754.31l-1.66.72,23.63,54.15,1.29-.56a.41.41,0,0,0,.21-.54Z" transform="translate(-214.47 -157.7)"/><path d="M616.8,755.35l-4,1.72,23.46,53.77a.41.41,0,0,0,.54.21l3.58-1.55Z" transform="translate(-214.47 -157.7)"/><path class="cls-15" d="M643.19,814l-3,1.28a.57.57,0,0,1-.25.06.7.7,0,0,1-.48-.19.64.64,0,0,1-.14-.22l-1.8-4.15,4.17-1.8,1.8,4.15a.72.72,0,0,1,0,.5.7.7,0,0,1-.33.37Z" transform="translate(-214.47 -157.7)"/><path class="cls-15" d="M619.22,754.31l-6.37,2.76L611,752.84c-.76-1.76-2.34-9.32-.58-10.08s6.19,5.56,7,7.32Z" transform="translate(-214.47 -157.7)"/><path class="cls-15" d="M631.8,800.44l3.31,7.64-3.89-1.59-.64-1.48-2.67-6.16L619.75,780l-1.4-3.24.6-.26a1.8,1.8,0,0,1,1.21-.12,1.76,1.76,0,0,1,.79,3l8.76,20.21Z" transform="translate(-214.47 -157.7)"/><path class="cls-8" d="M594.91,793.66l20.18-33.74a1.37,1.37,0,0,1,.72-.58,1.3,1.3,0,0,1,.93,0A5.38,5.38,0,0,1,620,766l-2.59,8.32Z" transform="translate(-214.47 -157.7)"/><path class="cls-8" d="M532,610.73l4.4,29.55a4.29,4.29,0,0,0,.86,2,4.25,4.25,0,0,0,1.74,1.28l3.42,1.34a5.55,5.55,0,0,1,3.51,5.57v.11a5.74,5.74,0,0,1-1.4,3.36,5.69,5.69,0,0,1-3.14,1.84c-2,.4-3.85.81-3.85.81L533.9,672.7a15.89,15.89,0,0,1-18.16,12.18l-8.29-1.39-27.58,31.69L453.32,669l14.87-22.17L482.63,602Z" transform="translate(-214.47 -157.7)"/><path class="cls-16" d="M462.11,600c5-9.42,11.3-12.61,20.95-11.83a4.28,4.28,0,0,0,2.2-.65,4.35,4.35,0,0,0,1.56-1.68c2-3.23,6.9-8.74,17.3-8.07a17.54,17.54,0,0,1,14.59,8.71,5,5,0,0,0,6.2,1.9,14.31,14.31,0,0,1,14,1.44c10.74,7.06,5.9,25.7-5.71,27.18l-9.28.77a3.62,3.62,0,0,0-2.25,1A3.67,3.67,0,0,0,520.6,621a13.17,13.17,0,0,1-1.44,4.7,13.35,13.35,0,0,1-13.47,7,2.08,2.08,0,0,0-.89.11,2.21,2.21,0,0,0-1.29,1.18,2.23,2.23,0,0,0-.18.88v10.41a2.79,2.79,0,0,1-.42,1.52,2.87,2.87,0,0,1-1.18,1.06,2.69,2.69,0,0,1-2.2,0,2.56,2.56,0,0,1-.9-.67,2.64,2.64,0,0,1-.55-1l-2.16-6.9a6.31,6.31,0,0,0-5.31-4.39l-2.72-.32c-2.71,3.91-5.22,8.29-7.54,11.68a25.92,25.92,0,0,1-5.53,6.15c-3.93,2.93-7.09,1.89-9-2.15,0,0-11.82-26.16-5.76-45.4a29.07,29.07,0,0,1,2.06-4.92" transform="translate(-214.47 -157.7)"/><g class="cls-9"><path class="cls-10" d="M474.82,652.48l7.67.95c.25.15.53.29.81.44,2.65,1.38,7.06,3.2,10.71,2.26a1,1,0,0,0,.61-.46,1,1,0,0,0,.11-.76,1,1,0,0,0-.47-.62,1,1,0,0,0-.76-.1,6.81,6.81,0,0,1-1.85.19l-11.3-8a25.92,25.92,0,0,1-5.53,6.15" transform="translate(-214.47 -157.7)"/></g><path class="cls-3" d="M539.8,634,494,637.17l.16,2.31L540,636.27Z" transform="translate(-214.47 -157.7)"/><path class="cls-8" d="M492.16,633.64s-3.24-7-10.45-3c-8.25,4.57-4.75,24,9.93,23.75,7.7-.12,5.73-4.36,3.9-10.14Z" transform="translate(-214.47 -157.7)"/><g class="cls-17"><path class="cls-18" d="M481.75,635.75a5.43,5.43,0,0,1,4.1-1.46,5.39,5.39,0,0,1,2,.81,5.45,5.45,0,0,1,1.53,1.57,10.78,10.78,0,0,1,1.93,5.2l.29,1.7a.77.77,0,0,1,0,.37,1,1,0,0,1-.15.34.75.75,0,0,1-.28.25.73.73,0,0,1-.35.12.93.93,0,0,1-.37,0,.8.8,0,0,1-.32-.19.76.76,0,0,1-.23-.3.86.86,0,0,1-.08-.36l-.29-1.7a10.42,10.42,0,0,0-1.59-4.33,3.56,3.56,0,0,0-1-1.07,3.71,3.71,0,0,0-1.34-.61,3.7,3.7,0,0,0-2.75,1.07.92.92,0,0,1-.31.16.8.8,0,0,1-.34,0,1,1,0,0,1-.34-.1,1.13,1.13,0,0,1-.27-.22.9.9,0,0,1-.19-.66.75.75,0,0,1,.1-.33.73.73,0,0,1,.22-.27" transform="translate(-214.47 -157.7)"/></g><path class="cls-3" d="M538.7,646.44a1.12,1.12,0,0,1-.55-.38,1.17,1.17,0,0,1-.25-.62l-2.8-21a1.15,1.15,0,0,1,1-1.3,1.14,1.14,0,0,1,.45,0,1.2,1.2,0,0,1,.41.2,1.05,1.05,0,0,1,.29.34,1.09,1.09,0,0,1,.14.43l2.8,21a1.16,1.16,0,0,1-.23.86,1.19,1.19,0,0,1-.77.44,1.35,1.35,0,0,1-.49,0" transform="translate(-214.47 -157.7)"/><path class="cls-18" d="M529.67,662.57a13.77,13.77,0,0,0,6.18,1.62l.41-2.28a12.41,12.41,0,0,1-7.51-2.77,1.16,1.16,0,0,0-.83-.29,1.18,1.18,0,0,0-.8.39,1.12,1.12,0,0,0-.28.83,1.11,1.11,0,0,0,.38.79,11.58,11.58,0,0,0,2.45,1.71" transform="translate(-214.47 -157.7)"/><path class="cls-3" d="M506.49,730.71l-8.7-9.73.64-12.85-40.37-47.31-10.69,10.25a53.1,53.1,0,0,0-50.13,33.42s-54.54,145.75-53.72,161.2a129.32,129.32,0,0,0,71.85,20.15s10.43-.57,15.14-1.16c2.33-.29,12.19-2.22,12.79-2.36a129.15,129.15,0,0,0,22.57-7.61l2.59-61.88,50.12-44.68-.12-6.9a47.11,47.11,0,0,0-12-30.54Z" transform="translate(-214.47 -157.7)"/><path class="cls-5" d="M467.44,835.55c-40.64-18.44-80.68-102.66-80.68-102.66l-11.84,34s32.38,71.56,91.29,99Z" transform="translate(-214.47 -157.7)"/><g class="cls-9"><path class="cls-10" d="M496.15,720.92l-35.5-37.82a1.17,1.17,0,0,1-.24-.38,1.15,1.15,0,0,1-.07-.45,1,1,0,0,1,.1-.43,1.08,1.08,0,0,1,.26-.37,1.17,1.17,0,0,1,.38-.24,1.1,1.1,0,0,1,.44-.07,1.05,1.05,0,0,1,.44.1,1.08,1.08,0,0,1,.37.26l35.5,37.82-.05,1.63a1.36,1.36,0,0,1-.57.3,1.26,1.26,0,0,1-.64,0Z" transform="translate(-214.47 -157.7)"/></g><g class="cls-17"><path class="cls-18" d="M507.42,683.49l-6.1-1.25a1.69,1.69,0,0,0-1.82.79,1.65,1.65,0,0,0-.22,1,1.71,1.71,0,0,0,.42,1l3.17,3.74Z" transform="translate(-214.47 -157.7)"/></g><path class="cls-3" d="M462.58,800.83l13.92,75.79a27.88,27.88,0,0,0,43.72,13.14l90.7-74.18-16-22L525.8,830.23l-7.75-69.46Z" transform="translate(-214.47 -157.7)"/><path class="cls-10" d="M525.8,830.21l1.14,8.83a2.65,2.65,0,0,0,.65,1.43,2.68,2.68,0,0,0,4.16-.18l16.51-22.4Z" transform="translate(-214.47 -157.7)"/><path class="cls-10" d="M465.85,874.72l3-73.62a1.5,1.5,0,0,0-3,0l-14.46,79s5.84-1.94,7.77-2.66C460.85,876.83,465.85,874.72,465.85,874.72Z" transform="translate(-214.47 -157.7)"/><path class="cls-12" d="M853.26,352.21c2.11-.29,3.68-1.48,3.52-2.66s-2-1.89-4.11-1.6-3.68,1.49-3.52,2.66S851.16,352.51,853.26,352.21Z" transform="translate(-214.47 -157.7)"/><path class="cls-16" d="M893.31,296.17a21.64,21.64,0,1,0-21.64-21.64A21.64,21.64,0,0,0,893.31,296.17Z" transform="translate(-214.47 -157.7)"/><path class="cls-3" d="M885.5,268.18A21.47,21.47,0,0,0,872.16,270a3.6,3.6,0,0,1-.15.63,21.49,21.49,0,0,0-.08,7.2,21.61,21.61,0,0,1,24.63,18.06,21.78,21.78,0,0,0,6.21-1.94,3.18,3.18,0,0,1,.14-.61,21.64,21.64,0,0,0-17.41-25.16Z" transform="translate(-214.47 -157.7)"/><path class="cls-16" d="M866.41,369.58a12.18,12.18,0,1,0-12.18-12.18A12.18,12.18,0,0,0,866.41,369.58Z" transform="translate(-214.47 -157.7)"/><path class="cls-19" d="M883.66,319.32l12,40.37a7.48,7.48,0,0,0,3.61,4.46,7.54,7.54,0,0,0,5.71.59l4.83-1.22s-10.31,18.38-37.18,24.85c-14,3.36-28.58-2.32-28.58-2.32l7.84-4s.57-.68.89-6.66a52.09,52.09,0,0,0-.31-8.47c-1.66-11.41-6.71-45.28-6.71-45.28Z" transform="translate(-214.47 -157.7)"/><path class="cls-19" d="M863.64,360l2-.39a25.9,25.9,0,0,0,19.74-30.88l-7.87-35.52a8.45,8.45,0,0,0-1.36-3.1,8.63,8.63,0,0,0-2.44-2.34,8.77,8.77,0,0,0-3.16-1.22,8.55,8.55,0,0,0-3.38.1l-33.26,7.27a11.24,11.24,0,0,0-8.54,13.4l7.33,33A26.09,26.09,0,0,0,863.64,360Z" transform="translate(-214.47 -157.7)"/><path class="cls-16" d="M854.85,329.52a2.81,2.81,0,1,0-2.81-2.81A2.81,2.81,0,0,0,854.85,329.52Z" transform="translate(-214.47 -157.7)"/><path class="cls-12" d="M853.59,327.07a.58.58,0,1,0-.58-.58A.58.58,0,0,0,853.59,327.07Z" transform="translate(-214.47 -157.7)"/><path class="cls-16" d="M833.73,335.14a2.81,2.81,0,1,0-2.81-2.81A2.81,2.81,0,0,0,833.73,335.14Z" transform="translate(-214.47 -157.7)"/><path class="cls-12" d="M832.43,332.57a.58.58,0,1,0-.58-.58A.58.58,0,0,0,832.43,332.57Z" transform="translate(-214.47 -157.7)"/><g class="cls-9"><path class="cls-10" d="M849.05,339.71l3.7-.62a.83.83,0,0,0,.55-.31.79.79,0,0,0,.18-.61.82.82,0,0,0-.92-.73l-3.7.62a1.73,1.73,0,0,1-.68,0,1.79,1.79,0,0,1-1.09-.77,1.89,1.89,0,0,1-.23-.64,1.85,1.85,0,0,1,.31-1.29,1.9,1.9,0,0,1,1.07-.77.87.87,0,0,0,.31-.1.69.69,0,0,0,.24-.21.8.8,0,0,0,.15-.29.85.85,0,0,0,0-.32.87.87,0,0,0-.1-.31.82.82,0,0,0-.21-.25.87.87,0,0,0-.29-.14.85.85,0,0,0-.32,0,3.36,3.36,0,0,0-2.14,1.39,3.42,3.42,0,0,0-.59,2.48,2.93,2.93,0,0,0,.3,1.31,3.12,3.12,0,0,0,.85,1.06,3.08,3.08,0,0,0,2.58.54Z" transform="translate(-214.47 -157.7)"/></g><path class="cls-10" d="M851.38,359.74a28.8,28.8,0,0,0,13.81.08l3-.81a3.83,3.83,0,0,0,1.1-.41l.22-.06c.53-.27,1.1-.41,1.75-.71.22-.06.42-.24.65-.3a26.9,26.9,0,0,0,8-5.51.77.77,0,0,1,1,0,.73.73,0,0,1,.25.48.74.74,0,0,1-.13.52,29.7,29.7,0,0,1-10.52,6.8,23.14,23.14,0,0,1-12,8,24.93,24.93,0,0,1-5.83.83Z" transform="translate(-214.47 -157.7)"/><path class="cls-16" d="M878.88,292.11c-.85-7.73-2.83-2.1-7.28-6.12s-25-.46-25-.46C843,287.9,834,292.07,837,298.6c11.94,26.12,45,15,45,15Z" transform="translate(-214.47 -157.7)"/><path class="cls-16" d="M900.63,290.46c-1-11.13-10.82-17-18.34-18.42-4.7-.86-8.48-.89-14.54-.48-56.7,3.81-45.37,43.22-45.37,43.22l21.51-20.22,37.65,17.06s11.76,3.52,9,12.69c-2.39,7.89-10.34,9.16-10.34,9.16A35.93,35.93,0,0,0,891,344.18S904.43,328.44,900.63,290.46Z" transform="translate(-214.47 -157.7)"/><path class="cls-16" d="M822.38,314.78c-7.92-26,16.44-25.89,16.44-25.89,2.5,0,.41-.42,1.37,3.65,2.82,12-2.1,18.24-10.3,20.35C827.87,313.42,822.38,314.78,822.38,314.78Z" transform="translate(-214.47 -157.7)"/><path class="cls-19" d="M878.39,333.81s12.38-1.23,12.81-13.69-15-12.12-14.89.44l.72,13.61Z" transform="translate(-214.47 -157.7)"/><path class="cls-10" d="M886.28,314.4a4.8,4.8,0,0,0-3.83-.32,4.69,4.69,0,0,0-1.57,1.15,4.54,4.54,0,0,0-.94,1.69,9.18,9.18,0,0,0-.5,5l.22,1.27c.12.94,1.83,1,1.64-.19l-.13-1.41a8.56,8.56,0,0,1,.36-4.08,3.37,3.37,0,0,1,1.64-2,3.48,3.48,0,0,1,2.61.26.89.89,0,0,0,1.1-.41.91.91,0,0,0-.13-.58.92.92,0,0,0-.47-.38Z" transform="translate(-214.47 -157.7)"/><path class="cls-3" d="M880.92,331.31a2.47,2.47,0,1,0-2.47-2.47A2.48,2.48,0,0,0,880.92,331.31Z" transform="translate(-214.47 -157.7)"/><path class="cls-10" d="M880.48,331.19a2.53,2.53,0,0,0,1-.37,2.41,2.41,0,0,0,.77-.72,2.47,2.47,0,0,0,.42-1,2.53,2.53,0,0,0,0-1.06,2.72,2.72,0,0,0-.71-1.27,2.76,2.76,0,0,1,.92.74,2.8,2.8,0,0,1,.52,1,2.44,2.44,0,0,1,0,1,2.64,2.64,0,0,1-.38.88,2.35,2.35,0,0,1-.71.66,2.24,2.24,0,0,1-.9.34,2,2,0,0,1-1.5-.21A.91.91,0,0,1,880.48,331.19Z" transform="translate(-214.47 -157.7)"/><path class="cls-16" d="M876.39,320.89c.37-.57.13-5.34,2.36-7.58l-2-1.74s-2,5.44-1.91,8.93a.88.88,0,0,0,.21.46.84.84,0,0,0,.43.26,1,1,0,0,0,.51,0,.87.87,0,0,0,.4-.31Z" transform="translate(-214.47 -157.7)"/><path class="cls-12" d="M852.53,344.17l1,.9a5.07,5.07,0,0,0,4.71.88,5.15,5.15,0,0,0,3.36-3.41L862,341c.09-.33-.15-.64-.47-.51l-8.91,3a.42.42,0,0,0-.18.11.37.37,0,0,0-.09.2.31.31,0,0,0,0,.21.31.31,0,0,0,.13.17Z" transform="translate(-214.47 -157.7)"/><path class="cls-8" d="M689.71,559l16.52,3.27a2.87,2.87,0,0,0,1.48-.1,2.81,2.81,0,0,0,1.23-.83,3,3,0,0,0,.65-1.34,2.87,2.87,0,0,0-.12-1.48L708,554.29a6.36,6.36,0,0,0-3.29-3.64l-21.16-9.82,7.32,19.59" transform="translate(-214.47 -157.7)"/><path class="cls-10" d="M689.71,559l16.52,3.27a2.87,2.87,0,0,0,1.48-.1,2.81,2.81,0,0,0,1.23-.83,3,3,0,0,0,.65-1.34,2.87,2.87,0,0,0-.12-1.48L708,554.29a6.36,6.36,0,0,0-3.29-3.64l-21.16-9.82,7.32,19.59" transform="translate(-214.47 -157.7)"/><path class="cls-8" d="M679,541.35l5.37,8.18a2.09,2.09,0,0,1,.33,1.35,111.46,111.46,0,0,0-.73,11.83,2.09,2.09,0,0,0,1.73,2c4.18.7,15.4,2.52,16.48,2.24a2.35,2.35,0,0,0,1.35-.93,2.42,2.42,0,0,0,.45-1.58c-.33-5-10.08-5.94-10.08-5.94l5.17-13.41a1.54,1.54,0,0,1,.82-.71,1.57,1.57,0,0,1,1.09,0,1.64,1.64,0,0,1,.86.67,1.61,1.61,0,0,1,.23,1.07l-.94,8.83a5.51,5.51,0,0,0,4.52,6,1.43,1.43,0,0,0,.93-.17,1.39,1.39,0,0,0,.61-.72l11.67-35.41-20-13L679,539.14a2.07,2.07,0,0,0,0,2.21Z" transform="translate(-214.47 -157.7)"/><path class="cls-15" d="M716.09,577.47a.34.34,0,0,0,.12-.12.44.44,0,0,0,.06-.16.43.43,0,0,0,0-.16.46.46,0,0,0-.07-.16l-.84-1.21-.71.49.84,1.21a.47.47,0,0,0,.28.18A.46.46,0,0,0,716.09,577.47Z" transform="translate(-214.47 -157.7)"/><path d="M716.09,577.47a.34.34,0,0,0,.12-.12.44.44,0,0,0,.06-.16.43.43,0,0,0,0-.16.46.46,0,0,0-.07-.16l-.84-1.21-.71.49.84,1.21a.47.47,0,0,0,.28.18A.46.46,0,0,0,716.09,577.47Z" transform="translate(-214.47 -157.7)"/><path class="cls-15" d="M704.16,566.47l1.52-1.05L671.34,516l-1.17.81a.41.41,0,0,0-.17.27.38.38,0,0,0,.06.31Z" transform="translate(-214.47 -157.7)"/><path class="cls-15" d="M706.37,564.94l3.62-2.5-34.1-49.08a.47.47,0,0,0-.27-.18.42.42,0,0,0-.31.07L672,515.51Z" transform="translate(-214.47 -157.7)"/><path d="M704.16,566.47l1.52-1.05L671.34,516l-1.17.81a.41.41,0,0,0-.17.27.38.38,0,0,0,.06.31Z" transform="translate(-214.47 -157.7)"/><path d="M706.37,564.94l3.62-2.5-34.1-49.08a.47.47,0,0,0-.27-.18.42.42,0,0,0-.31.07L672,515.51Z" transform="translate(-214.47 -157.7)"/><path class="cls-15" d="M668.38,511.61l2.69-1.86a.66.66,0,0,1,.24-.11.61.61,0,0,1,.27,0,.7.7,0,0,1,.24.09.69.69,0,0,1,.19.19l2.62,3.79-3.8,2.63-2.62-3.79a.71.71,0,0,1-.11-.51.66.66,0,0,1,.28-.43Z" transform="translate(-214.47 -157.7)"/><path class="cls-15" d="M704.16,566.47l5.82-4,2.67,3.87c1.11,1.61,4.19,8.85,2.58,10s-7.29-4.33-8.4-5.93Z" transform="translate(-214.47 -157.7)"/><path class="cls-15" d="M682.45,522.87l-4.82-7,4.2.82.93,1.35,3.89,5.63,11.88,17.2,2.05,3-.55.38a1.79,1.79,0,0,1-2.5-.46,1.82,1.82,0,0,1,0-2l-12.75-18.46Z" transform="translate(-214.47 -157.7)"/><path class="cls-8" d="M718.85,524.64l-11.67,35.41a1.35,1.35,0,0,1-.61.72,1.32,1.32,0,0,1-.93.17,5.51,5.51,0,0,1-4.52-6l.94-8.83Z" transform="translate(-214.47 -157.7)"/><path class="cls-3" d="M843.09,433.57l-70.5,30.3-53.73,60.78-20-13,53.09-74a36.25,36.25,0,0,1,13-11.22L844,386Z" transform="translate(-214.47 -157.7)"/><path class="cls-10" d="M820.16,413.38s4.07,15.17,4.05,28.3l-8.1,3.48a71.61,71.61,0,0,0,3.15-11.22,79.57,79.57,0,0,0,.9-20.56Z" transform="translate(-214.47 -157.7)"/><path class="cls-4" d="M722.3,490.16a1.45,1.45,0,0,0,.85-.1,1.48,1.48,0,0,0,.66-.55,1.54,1.54,0,0,0,.24-.83,1.51,1.51,0,0,0-.27-.82,1.46,1.46,0,0,0-.67-.53,1.48,1.48,0,0,0-.86-.07,1.48,1.48,0,0,0-1.14,1.18,1.42,1.42,0,0,0,0,.58,1.48,1.48,0,0,0,.23.53,1.5,1.5,0,0,0,1,.61Z" transform="translate(-214.47 -157.7)"/><path class="cls-4" d="M749.45,460.08a1.45,1.45,0,0,0,.85-.1,1.48,1.48,0,0,0,.66-.55,1.54,1.54,0,0,0,.24-.83,1.51,1.51,0,0,0-.27-.82,1.46,1.46,0,0,0-.67-.53,1.48,1.48,0,0,0-.86-.07,1.52,1.52,0,0,0-.75.42,1.46,1.46,0,0,0-.39.76,1.42,1.42,0,0,0,0,.58,1.48,1.48,0,0,0,.23.53,1.37,1.37,0,0,0,.42.41,1.47,1.47,0,0,0,.54.2Z" transform="translate(-214.47 -157.7)"/><path class="cls-4" d="M776.77,432.09a1.46,1.46,0,0,0,.85-.1,1.48,1.48,0,0,0,.66-.55,1.54,1.54,0,0,0,.24-.83,1.51,1.51,0,0,0-.27-.82,1.4,1.4,0,0,0-.67-.53,1.48,1.48,0,0,0-.86-.07,1.48,1.48,0,0,0-1.14,1.18,1.42,1.42,0,0,0,0,.58,1.48,1.48,0,0,0,.23.53,1.49,1.49,0,0,0,.42.41,1.47,1.47,0,0,0,.54.2Z" transform="translate(-214.47 -157.7)"/><path class="cls-4" d="M840.08,407.63a1.45,1.45,0,0,0,.85-.1,1.48,1.48,0,0,0,.66-.55,1.54,1.54,0,0,0,.24-.83,1.51,1.51,0,0,0-.27-.82,1.4,1.4,0,0,0-.67-.53,1.48,1.48,0,0,0-.86-.07,1.51,1.51,0,0,0-.75.41,1.53,1.53,0,0,0-.39.77,1.42,1.42,0,0,0,0,.58,1.48,1.48,0,0,0,.23.53,1.5,1.5,0,0,0,1,.61Z" transform="translate(-214.47 -157.7)"/><path class="cls-4" d="M744.86,485.3a1.45,1.45,0,0,0,.85-.1,1.47,1.47,0,0,0,.9-1.38,1.51,1.51,0,0,0-.27-.82,1.48,1.48,0,0,0-1.53-.6,1.45,1.45,0,0,0-1.14,1.18,1.42,1.42,0,0,0,0,.58,1.48,1.48,0,0,0,.23.53,1.5,1.5,0,0,0,1,.61Z" transform="translate(-214.47 -157.7)"/><path class="cls-4" d="M804.71,441.22a1.46,1.46,0,0,0,.85-.1,1.48,1.48,0,0,0,.66-.55,1.54,1.54,0,0,0,.24-.83,1.51,1.51,0,0,0-.27-.82,1.4,1.4,0,0,0-.67-.53,1.48,1.48,0,0,0-.86-.07,1.51,1.51,0,0,0-.75.41,1.53,1.53,0,0,0-.39.77,1.42,1.42,0,0,0,0,.58,1.48,1.48,0,0,0,.23.53,1.5,1.5,0,0,0,1,.61Z" transform="translate(-214.47 -157.7)"/><path class="cls-4" d="M830,427.72a1.45,1.45,0,0,0,.85-.1,1.48,1.48,0,0,0,.66-.55,1.54,1.54,0,0,0,.24-.83,1.51,1.51,0,0,0-.27-.82,1.4,1.4,0,0,0-.67-.53,1.48,1.48,0,0,0-.86-.07,1.51,1.51,0,0,0-.75.41,1.53,1.53,0,0,0-.39.77,1.42,1.42,0,0,0,0,.58,1.48,1.48,0,0,0,.23.53,1.5,1.5,0,0,0,1,.61Z" transform="translate(-214.47 -157.7)"/><path class="cls-4" d="M801,422.43a1.45,1.45,0,0,0,.85-.1,1.48,1.48,0,0,0,.66-.55,1.54,1.54,0,0,0,.24-.83,1.51,1.51,0,0,0-.27-.82,1.4,1.4,0,0,0-.67-.53,1.48,1.48,0,0,0-.86-.07,1.48,1.48,0,0,0-1.14,1.18,1.42,1.42,0,0,0,0,.58,1.48,1.48,0,0,0,.23.53,1.49,1.49,0,0,0,.42.41,1.47,1.47,0,0,0,.54.2Z" transform="translate(-214.47 -157.7)"/><path class="cls-4" d="M723.82,510.68a1.45,1.45,0,0,0,.85-.1,1.48,1.48,0,0,0,.66-.55,1.54,1.54,0,0,0,.24-.83,1.51,1.51,0,0,0-.27-.82,1.4,1.4,0,0,0-.67-.53,1.48,1.48,0,0,0-.86-.07,1.41,1.41,0,0,0-.75.42,1.46,1.46,0,0,0-.39.76,1.42,1.42,0,0,0,0,.58,1.48,1.48,0,0,0,.23.53,1.49,1.49,0,0,0,.42.41,1.47,1.47,0,0,0,.54.2Z" transform="translate(-214.47 -157.7)"/><path class="cls-4" d="M769.65,454.7a1.46,1.46,0,0,0,.85-.1,1.48,1.48,0,0,0,.66-.55,1.54,1.54,0,0,0,.24-.83,1.51,1.51,0,0,0-.27-.82,1.46,1.46,0,0,0-.67-.53,1.4,1.4,0,0,0-.86-.07,1.45,1.45,0,0,0-1.14,1.18,1.42,1.42,0,0,0,0,.58,1.48,1.48,0,0,0,.23.53,1.5,1.5,0,0,0,1,.61Z" transform="translate(-214.47 -157.7)"/><path class="cls-12" d="M823.05,332a11.31,11.31,0,1,0,19.58-9.58,9.85,9.85,0,0,1,5.46-1.33,13,13,0,0,0,0,3.74,11.3,11.3,0,1,0,9.07-13.18,11.22,11.22,0,0,0-8.79,7.9,10.42,10.42,0,0,0-6.8,1.69A11.35,11.35,0,0,0,823.05,332Zm26.34-7.39a9.79,9.79,0,1,1,11.4,7.85,9.9,9.9,0,0,1-11.4-7.84Zm-24.85,7.09a9.79,9.79,0,0,1,15.18-9.84A9.79,9.79,0,0,1,841,336.94a9.79,9.79,0,0,1-16.45-5.23Z" transform="translate(-214.47 -157.7)"/><path class="cls-10" d="M509,733.82s9,14.53,9.4,29.33l9.07-11.48-17.71-18.33Z" transform="translate(-214.47 -157.7)"/><path class="cls-2" d="M1066.6,746.25l-227,146.3a11,11,0,0,0-2.54,16.22,10.85,10.85,0,0,0,5,3.46l227,75.65a11.06,11.06,0,0,0,5.14.44,11,11,0,0,0,9.34-10.88V755.5a11,11,0,0,0-17-9.25Z" transform="translate(-214.47 -157.7)"/><path class="cls-20" d="M920.88,603.86H916.8a.5.5,0,0,1,0-1h4a.55.55,0,0,1,.37.14.48.48,0,0,1,.16.36.38.38,0,0,1,0,.18.56.56,0,0,1-.09.17.45.45,0,0,1-.33.15Zm-8.09,0h-4a.5.5,0,0,1,0-1h4a.5.5,0,0,1,0,1Zm-8,0h-4a.5.5,0,0,1,0-1h4a.5.5,0,0,1,0,1Zm-8,0h-4a.5.5,0,0,1,0-1h4a.5.5,0,0,1,0,1Zm-8,0h-4a.5.5,0,0,1,0-1h4a.5.5,0,0,1,0,1Zm-8,0h-.14a7.74,7.74,0,0,1-3.95-1.08.47.47,0,0,1-.15-.13.51.51,0,0,1-.09-.18.61.61,0,0,1,0-.19.44.44,0,0,1,.07-.19.47.47,0,0,1,.13-.15.75.75,0,0,1,.18-.08.44.44,0,0,1,.2,0,.67.67,0,0,1,.18.07,6.71,6.71,0,0,0,3.44.94h.14a.5.5,0,0,1,0,1Zm44-1.12a.47.47,0,0,1-.3-.1.53.53,0,0,1-.18-.26.47.47,0,0,1,0-.31.55.55,0,0,1,.2-.25,6.74,6.74,0,0,0,2.46-2.75.48.48,0,0,1,.29-.25.46.46,0,0,1,.38,0,.48.48,0,0,1,.25.29.46.46,0,0,1,0,.38,7.75,7.75,0,0,1-2.83,3.15.38.38,0,0,1-.17.08.31.31,0,0,1-.19,0ZM874.1,600a.59.59,0,0,1-.26-.07.58.58,0,0,1-.18-.2,7.74,7.74,0,0,1-.87-3.56v-.59a.46.46,0,0,1,.18-.34.48.48,0,0,1,.36-.12.49.49,0,0,1,.34.17.52.52,0,0,1,.12.37v.51a6.7,6.7,0,0,0,.76,3.1.6.6,0,0,1,.06.19.62.62,0,0,1,0,.19.59.59,0,0,1-.1.17.44.44,0,0,1-.15.12.5.5,0,0,1-.24.06Zm54.25-4h-.1a.54.54,0,0,1-.32-.21.51.51,0,0,1-.08-.38l.8-3.94a.37.37,0,0,1,.08-.18.32.32,0,0,1,.14-.14.37.37,0,0,1,.18-.08.67.67,0,0,1,.2,0,.37.37,0,0,1,.18.08.32.32,0,0,1,.14.14.42.42,0,0,1,.08.18.67.67,0,0,1,0,.2l-.8,3.93a.48.48,0,0,1-.2.24.46.46,0,0,1-.3.08Zm-54.3-3.79h0a.36.36,0,0,1-.18-.07.47.47,0,0,1-.14-.14.36.36,0,0,1-.07-.18.41.41,0,0,1,0-.19l.8-3.94a.48.48,0,0,1,.07-.18.62.62,0,0,1,.14-.14.45.45,0,0,1,.18-.07.34.34,0,0,1,.2,0,.42.42,0,0,1,.18.08.57.57,0,0,1,.14.13.62.62,0,0,1,.07.19.61.61,0,0,1,0,.19l-.8,3.93a.53.53,0,0,1-.22.25.44.44,0,0,1-.32.06ZM929.94,588h-.1a.56.56,0,0,1-.18-.07.62.62,0,0,1-.14-.14.53.53,0,0,1-.07-.38l.8-3.93a.36.36,0,0,1,.07-.18.38.38,0,0,1,.14-.14.36.36,0,0,1,.18-.07.41.41,0,0,1,.19,0,.48.48,0,0,1,.18.07.47.47,0,0,1,.14.14.48.48,0,0,1,.08.18.67.67,0,0,1,0,.2l-.8,3.93a.47.47,0,0,1-.18.28.51.51,0,0,1-.31.11Zm-54.3-3.78h-.1a.42.42,0,0,1-.18-.08.57.57,0,0,1-.14-.13.53.53,0,0,1-.07-.38l.8-3.93a.56.56,0,0,1,.07-.18.47.47,0,0,1,.14-.14.48.48,0,0,1,.18-.08h.2a.5.5,0,0,1,.31.22.49.49,0,0,1,.08.37l-.8,3.94a.52.52,0,0,1-.16.31.5.5,0,0,1-.33.12Zm55.89-4.09h-.1a.5.5,0,0,1-.31-.22.49.49,0,0,1-.08-.37l.8-3.94a.42.42,0,0,1,.08-.18.57.57,0,0,1,.13-.14.67.67,0,0,1,.18-.07h.2a.5.5,0,0,1,.31.22.49.49,0,0,1,.08.37l-.8,3.94a.47.47,0,0,1-.16.31.5.5,0,0,1-.33.12Zm-54.29-3.78h-.1a.48.48,0,0,1-.18-.08.57.57,0,0,1-.14-.13.53.53,0,0,1-.07-.38l.79-3.94a.5.5,0,0,1,.22-.31.49.49,0,0,1,.37-.08.42.42,0,0,1,.18.08.57.57,0,0,1,.14.13.62.62,0,0,1,.07.19.61.61,0,0,1,0,.19l-.79,3.94a.51.51,0,0,1-.17.3.48.48,0,0,1-.32.13Zm55.89-4.09H933a.48.48,0,0,1-.18-.08.57.57,0,0,1-.14-.13.62.62,0,0,1-.07-.19.61.61,0,0,1,0-.19l.79-3.94a.5.5,0,0,1,.22-.31.49.49,0,0,1,.37-.08.42.42,0,0,1,.18.08.57.57,0,0,1,.14.13.53.53,0,0,1,.07.38l-.79,3.94a.47.47,0,0,1-.16.29.49.49,0,0,1-.3.14Zm-54.3-3.78h-.1a.5.5,0,0,1-.31-.22.49.49,0,0,1-.08-.37l.8-3.94a.56.56,0,0,1,.07-.18.62.62,0,0,1,.14-.14.45.45,0,0,1,.18-.07.34.34,0,0,1,.2,0,.42.42,0,0,1,.18.08.57.57,0,0,1,.14.13.62.62,0,0,1,.07.19.61.61,0,0,1,0,.19l-.8,3.93a.58.58,0,0,1-.16.31.51.51,0,0,1-.33.13Zm55.89-4.1h-.1a.48.48,0,0,1-.18-.07.62.62,0,0,1-.14-.14.53.53,0,0,1-.07-.38l.8-3.93a.48.48,0,0,1,.07-.18.62.62,0,0,1,.14-.14.53.53,0,0,1,.38-.07.42.42,0,0,1,.18.08.57.57,0,0,1,.14.13.53.53,0,0,1,.07.38l-.8,3.93a.48.48,0,0,1-.17.31.45.45,0,0,1-.32.12Zm-54.29-3.78h-.1a.56.56,0,0,1-.18-.07.47.47,0,0,1-.14-.14.48.48,0,0,1-.08-.18.67.67,0,0,1,0-.2l.8-3.93a.48.48,0,0,1,.08-.18.57.57,0,0,1,.13-.14.53.53,0,0,1,.38-.07.48.48,0,0,1,.18.07.62.62,0,0,1,.14.14.53.53,0,0,1,.07.38l-.79,3.93a.48.48,0,0,1-.49.43Zm55.83-4.1a.59.59,0,0,1-.19,0,.44.44,0,0,1-.15-.12.59.59,0,0,1-.1-.17.46.46,0,0,1,0-.2v-.48a6.71,6.71,0,0,0-.77-3.13.55.55,0,0,1,0-.36.5.5,0,0,1,.24-.26.47.47,0,0,1,.35,0,.5.5,0,0,1,.29.2,7.6,7.6,0,0,1,.89,3.59,5.23,5.23,0,0,1,0,.56.45.45,0,0,1,0,.2.66.66,0,0,1-.12.17.4.4,0,0,1-.18.1.34.34,0,0,1-.2,0Zm-54-3.7a.54.54,0,0,1-.22,0,.48.48,0,0,1-.25-.29.5.5,0,0,1,0-.38,7.58,7.58,0,0,1,2.84-3.15.45.45,0,0,1,.18-.07h.2l.18.08a.47.47,0,0,1,.13.15.51.51,0,0,1-.16.69,6.6,6.6,0,0,0-2.47,2.74.58.58,0,0,1-.18.23.55.55,0,0,1-.28.09Zm50.46-3a.43.43,0,0,1-.25-.07,6.76,6.76,0,0,0-3.42-.93h-.17a.5.5,0,0,1,0-1H929a7.72,7.72,0,0,1,3.92,1.07.54.54,0,0,1,.21.24.5.5,0,0,1,0,.32.54.54,0,0,1-.18.27.51.51,0,0,1-.3.1Zm-7.85-1h-4a.5.5,0,0,1,0-1h4a.5.5,0,0,1,0,1Zm-8,0h-4a.5.5,0,0,1,0-1h4a.5.5,0,0,1,0,1Zm-8,0h-4a.5.5,0,0,1,0-1h4a.5.5,0,0,1,0,1Zm-8,0h-4a.5.5,0,0,1,0-1h4a.5.5,0,0,1,0,1Zm-8,0h-4a.69.69,0,0,1-.2,0,.64.64,0,0,1-.16-.11.52.52,0,0,1-.12-.17.53.53,0,0,1,0-.38.46.46,0,0,1,.11-.16.42.42,0,0,1,.16-.11.43.43,0,0,1,.19,0h4a.5.5,0,0,1,0,1Z" transform="translate(-214.47 -157.7)"/><path class="cls-20" d="M900.44,690.28a.5.5,0,0,1,0-1h4a.55.55,0,0,1,.37.14.5.5,0,0,1,.16.36.63.63,0,0,1,0,.19.44.44,0,0,1-.1.16.42.42,0,0,1-.16.11.43.43,0,0,1-.19,0v0Zm-4,0h-4a.5.5,0,0,1,0-1h4a.5.5,0,0,1,0,1Zm-8,0h-4a.5.5,0,0,1,0-1h4a.5.5,0,0,1,0,1Zm-8,0h-4a.5.5,0,0,1,0-1h4a.5.5,0,0,1,0,1Zm-8,0h-4a.5.5,0,0,1,0-1h4a.5.5,0,0,1,0,1Zm-8,0h-.14a7.74,7.74,0,0,1-3.95-1.08.47.47,0,0,1-.15-.13.51.51,0,0,1-.09-.18.61.61,0,0,1,0-.19.44.44,0,0,1,.07-.19.47.47,0,0,1,.13-.15.75.75,0,0,1,.18-.08.61.61,0,0,1,.19,0,.62.62,0,0,1,.19.07,6.71,6.71,0,0,0,3.44.94h.14a.5.5,0,0,1,0,1Zm44-1.12a.54.54,0,0,1-.3-.1.44.44,0,0,1-.18-.26.47.47,0,0,1,0-.31.55.55,0,0,1,.2-.25,6.74,6.74,0,0,0,2.46-2.75.48.48,0,0,1,.29-.25.46.46,0,0,1,.38,0,.48.48,0,0,1,.25.29.46.46,0,0,1,0,.38,7.77,7.77,0,0,1-2.83,3.16.4.4,0,0,1-.18.07.34.34,0,0,1-.2,0Zm-50.58-2.78a.59.59,0,0,1-.26-.07.58.58,0,0,1-.18-.2,7.74,7.74,0,0,1-.87-3.56V682a.41.41,0,0,1,.05-.19.48.48,0,0,1,.12-.16.56.56,0,0,1,.17-.09.46.46,0,0,1,.2,0,.59.59,0,0,1,.19,0,.44.44,0,0,1,.15.12.52.52,0,0,1,.1.18.58.58,0,0,1,0,.19,4.34,4.34,0,0,0,0,.51,6.7,6.7,0,0,0,.76,3.1.5.5,0,0,1,0,.38.49.49,0,0,1-.24.29.57.57,0,0,1-.36.06Zm54.24-4H912a.5.5,0,0,1-.31-.22.49.49,0,0,1-.08-.37l.8-3.94a.49.49,0,0,1,.22-.32.47.47,0,0,1,.38-.08.49.49,0,0,1,.32.22.47.47,0,0,1,.08.38l-.8,3.94a.71.71,0,0,1-.08.18.57.57,0,0,1-.15.12.44.44,0,0,1-.19.07.62.62,0,0,1-.19,0Zm-54.29-3.79h-.1a.56.56,0,0,1-.18-.07.47.47,0,0,1-.14-.14.45.45,0,0,1-.07-.18.34.34,0,0,1,0-.2l.68-4a.48.48,0,0,1,.07-.18.62.62,0,0,1,.14-.14.53.53,0,0,1,.38-.07.42.42,0,0,1,.18.08.47.47,0,0,1,.14.14.48.48,0,0,1,.07.18.61.61,0,0,1,0,.19l-.8,3.93a.51.51,0,0,1-.17.3.47.47,0,0,1-.32.12Zm55.89-4.08h-.1a.37.37,0,0,1-.18-.08.44.44,0,0,1-.14-.13.53.53,0,0,1-.07-.38L914,670a.37.37,0,0,1,.08-.18.32.32,0,0,1,.14-.14.42.42,0,0,1,.18-.08h.2a.42.42,0,0,1,.18.08.32.32,0,0,1,.14.14.42.42,0,0,1,.08.18.67.67,0,0,1,0,.2l-.79,3.93a.51.51,0,0,1-.09.18.47.47,0,0,1-.15.13.33.33,0,0,1-.19.06.45.45,0,0,1-.2,0Zm-54.3-3.79h-.1a.48.48,0,0,1-.18-.07l-.14-.14a.53.53,0,0,1-.07-.38l.8-3.94a.67.67,0,0,1,.07-.18l.14-.14a.67.67,0,0,1,.18-.07h.2a.5.5,0,0,1,.31.22.49.49,0,0,1,.08.37l-.8,3.94a.76.76,0,0,1-.09.18.33.33,0,0,1-.14.12.44.44,0,0,1-.19.07.62.62,0,0,1-.19,0Zm55.89-4.09h-.1a.37.37,0,0,1-.18-.08.57.57,0,0,1-.14-.13.53.53,0,0,1-.07-.38l.8-3.93a.49.49,0,0,1,.22-.32.47.47,0,0,1,.38-.08.52.52,0,0,1,.32.22.47.47,0,0,1,.08.38l-.8,3.93a.61.61,0,0,1-.09.18.47.47,0,0,1-.15.13.6.6,0,0,1-.19.06.44.44,0,0,1-.2,0ZM861,662.85h-.1a.56.56,0,0,1-.18-.07.62.62,0,0,1-.14-.14.53.53,0,0,1-.07-.38l.79-3.94a.5.5,0,0,1,.22-.31.5.5,0,0,1,.55,0,.62.62,0,0,1,.14.14.53.53,0,0,1,.07.38l-.79,3.94a.53.53,0,0,1-.23.3.56.56,0,0,1-.38,0Zm55.89-4.09h-.1a.37.37,0,0,1-.18-.08.44.44,0,0,1-.14-.13.53.53,0,0,1-.07-.38l.79-3.94a.5.5,0,0,1,.22-.31.49.49,0,0,1,.37-.08.42.42,0,0,1,.18.08.57.57,0,0,1,.14.13.53.53,0,0,1,.07.38l-.79,3.94a.53.53,0,0,1-.23.3.51.51,0,0,1-.38.05ZM862.59,655h-.1a.48.48,0,0,1-.18-.07l-.14-.14a.53.53,0,0,1-.07-.38l.8-3.93a.56.56,0,0,1,.07-.18.62.62,0,0,1,.14-.14.53.53,0,0,1,.38-.07.48.48,0,0,1,.18.08.47.47,0,0,1,.14.14.48.48,0,0,1,.07.18.61.61,0,0,1,0,.19l-.8,3.93a.5.5,0,0,1-.61.35Zm55.89-4.08h-.1a.56.56,0,0,1-.18-.07l-.14-.14a.53.53,0,0,1-.07-.38l.8-3.94a.56.56,0,0,1,.07-.18L919,646a.67.67,0,0,1,.18-.07h.2a.42.42,0,0,1,.18.08.57.57,0,0,1,.14.13.53.53,0,0,1,.07.38l-.8,3.94a.51.51,0,0,1-.24.3.52.52,0,0,1-.37.05Zm-54.29-3.79H864a.48.48,0,0,1-.18-.07.62.62,0,0,1-.14-.14.45.45,0,0,1-.07-.18.34.34,0,0,1,0-.2l.79-3.94a.5.5,0,0,1,.22-.31.54.54,0,0,1,.37-.08.48.48,0,0,1,.18.08.47.47,0,0,1,.14.14.48.48,0,0,1,.07.18.61.61,0,0,1,0,.19l-.79,3.94a.48.48,0,0,1-.2.27.51.51,0,0,1-.32.08ZM919.9,643a.45.45,0,0,1-.19,0,.44.44,0,0,1-.15-.12.48.48,0,0,1-.1-.17.4.4,0,0,1,0-.19V642a6.64,6.64,0,0,0-.77-3.12.6.6,0,0,1-.06-.19.62.62,0,0,1,0-.19.4.4,0,0,1,.1-.18.44.44,0,0,1,.15-.12.6.6,0,0,1,.19-.06.42.42,0,0,1,.19,0,.38.38,0,0,1,.18.09.44.44,0,0,1,.12.15,7.74,7.74,0,0,1,.88,3.59,5.23,5.23,0,0,1,0,.56.41.41,0,0,1-.05.19.61.61,0,0,1-.12.16.56.56,0,0,1-.17.09.46.46,0,0,1-.2,0Zm-54-3.7a.43.43,0,0,1-.22-.06.61.61,0,0,1-.16-.12.46.46,0,0,1-.09-.17.4.4,0,0,1,0-.19.41.41,0,0,1,.05-.19,7.68,7.68,0,0,1,2.84-3.14.4.4,0,0,1,.18-.07h.2a.76.76,0,0,1,.18.09.35.35,0,0,1,.13.14.51.51,0,0,1-.16.69,6.83,6.83,0,0,0-2.48,2.74.47.47,0,0,1-.19.18.58.58,0,0,1-.26.06Zm50.46-3a.43.43,0,0,1-.25-.07,6.76,6.76,0,0,0-3.42-.93h-.16a.5.5,0,0,1,0-1h.16a7.76,7.76,0,0,1,3.93,1.07.5.5,0,0,1,.22.31.44.44,0,0,1-.05.37.44.44,0,0,1-.2.13.5.5,0,0,1-.24,0Zm-7.85-1h-4a.5.5,0,0,1,0-1h4a.5.5,0,0,1,0,1Zm-8,0h-4a.5.5,0,0,1,0-1h4a.5.5,0,0,1,0,1Zm-8,0h-4a.5.5,0,0,1,0-1h4a.5.5,0,0,1,0,1Zm-8,0h-4a.5.5,0,0,1,0-1h4a.5.5,0,0,1,0,1Zm-8,0h-4a.58.58,0,0,1-.19,0,.71.71,0,0,1-.17-.11A.62.62,0,0,1,872,635a.41.41,0,0,1,0-.19.46.46,0,0,1,0-.2.52.52,0,0,1,.12-.17.46.46,0,0,1,.18-.1.39.39,0,0,1,.21,0h3.94a.5.5,0,0,1,0,1Z" transform="translate(-214.47 -157.7)"/><path class="cls-3" d="M956.39,604.45l-40,13.43a3.14,3.14,0,0,1-3.94-2l-13.43-40a3.14,3.14,0,0,1,2-3.94l40-13.43a3.14,3.14,0,0,1,3.94,2l13.43,40a3.16,3.16,0,0,1-2,3.94Z" transform="translate(-214.47 -157.7)"/><path class="cls-3" d="M956.39,604.45l-40,13.43a3.14,3.14,0,0,1-3.94-2l-13.43-40a3.14,3.14,0,0,1,2-3.94l40-13.43a3.14,3.14,0,0,1,3.94,2l13.43,40a3.16,3.16,0,0,1-2,3.94Z" transform="translate(-214.47 -157.7)"/><path class="cls-12" d="M962.29,607.91,913.8,624.2a3.8,3.8,0,0,1-4.78-2.38l-16.29-48.49a3.83,3.83,0,0,1,.2-2.88,3.78,3.78,0,0,1,2.18-1.9l48.49-16.29a3.79,3.79,0,0,1,2.88.21,3.74,3.74,0,0,1,1.9,2.17l16.29,48.49a3.86,3.86,0,0,1-2.38,4.78Z" transform="translate(-214.47 -157.7)"/><path class="cls-3" d="M956.39,604.45l-40,13.43a3.14,3.14,0,0,1-3.94-2l-13.43-40a3.14,3.14,0,0,1,2-3.94l40-13.43a3.14,3.14,0,0,1,3.94,2l13.43,40a3.16,3.16,0,0,1-2,3.94Z" transform="translate(-214.47 -157.7)"/><path class="cls-21" d="M926,580.74a4.29,4.29,0,0,0,2.92-3.77,4.38,4.38,0,0,0-.56-2.43,4.29,4.29,0,0,0-6.54-1.1,4.36,4.36,0,0,0-1.33,2.11,4.31,4.31,0,0,0,.08,2.49,4.3,4.3,0,0,0,5.43,2.7Z" transform="translate(-214.47 -157.7)"/><path class="cls-21" d="M912.49,616l-3.7-11,11.63-16.76a1.77,1.77,0,0,1,2.08-.63l7,2.91,8-12.21a1.75,1.75,0,0,1,2.14-.65l12.74,5.3,6,17.75a3.14,3.14,0,0,1-2,3.94L916.45,618a3.3,3.3,0,0,1-2.37-.23,3.25,3.25,0,0,1-1.59-1.77Z" transform="translate(-214.47 -157.7)"/><path class="cls-22" d="M898.84,717.52l7.43-79,5.53-18.63c.27-.69,3.26-9.24,4.44-13.48a2.87,2.87,0,0,0-1.38-3.31h0a2.89,2.89,0,0,0-3.83,1l-2.94,4.56a2.34,2.34,0,0,1-1,.54,2.28,2.28,0,0,1-1.13,0,2.34,2.34,0,0,1-1.66-1.43l-6.3-19.5-1.74.31a3.36,3.36,0,0,0-2,1.16,3.4,3.4,0,0,0-.84,2.19l-.07,1.5a2.44,2.44,0,0,1-.52,1,2.52,2.52,0,0,1-.92.66l-1.11.41c-1.6.68-2.28,2.58-2.35,4.33l.06,1.62a1.87,1.87,0,0,1-1.44,1.8h0a3.19,3.19,0,0,0-2.87,3.47l-.14,3.13-.12.13a4.91,4.91,0,0,0-2.18,5.44l6.16,26.25-20.6,77a16,16,0,0,0,1.15,11.3l37.09,74.08,37.9-29.41Z" transform="translate(-214.47 -157.7)"/><path class="cls-3" d="M1015.56,867.08,1048,905.5l26.65-29.43-33.39-56.41-47.54-13.27-31.64-8L920.5,745.25,888.42,769.9l39.27,78.29,5.13,94.27,121.31,40.44L1040.79,897Z" transform="translate(-214.47 -157.7)"/><path class="cls-19" d="M1008.1,751.08l4.46,36.59a6.85,6.85,0,0,0,5.59,5.84l3.17,11.34s-43.05-2-44.91-2.87l-7.29-1.78c2.59-1,5.1-5.86,5.17-8.54L975,747.6Z" transform="translate(-214.47 -157.7)"/><path class="cls-19" d="M972.89,784.62l1.67.5a22.65,22.65,0,0,0,28-15.61l8.68-30.65a7.73,7.73,0,0,0,.24-3,7.56,7.56,0,0,0-.92-2.81,7.42,7.42,0,0,0-1.92-2.25,7.5,7.5,0,0,0-2.64-1.34l-28.66-8.21a9.86,9.86,0,0,0-3.82-.31,10.22,10.22,0,0,0-3.66,1.18,9.9,9.9,0,0,0-4.66,5.91l-8.06,28.49a22.89,22.89,0,0,0,15.73,28" transform="translate(-214.47 -157.7)"/><path class="cls-19" d="M959.42,749a42.86,42.86,0,0,0-5.28,5.66c-1.64,2.39,3.09,3.61,3.09,3.61Z" transform="translate(-214.47 -157.7)"/><g class="cls-9"><path class="cls-10" d="M1013.35,767.83h-3.48l3.69,7.36Z" transform="translate(-214.47 -157.7)"/></g><g class="cls-9"><path class="cls-10" d="M982.62,785.91s-4.87.41-8.26-.9l-.07,6.3Z" transform="translate(-214.47 -157.7)"/></g><path class="cls-18" d="M956.51,765.25a11,11,0,0,0,7.8-3,.47.47,0,0,0,.13-.35.5.5,0,0,0-.14-.35.49.49,0,0,0-.34-.15.48.48,0,0,0-.36.12,10.46,10.46,0,0,1-7.18,2.72Z" transform="translate(-214.47 -157.7)"/><path d="M988.41,749.6S996,770.43,984,783.74c-6.73,7.42-47.34,63.66,40.54,79.8a78,78,0,0,0,23.48.86c20.93-2.56,31.32-12.55,31.77-22.21,1.53-24.06-31.07-32.75-32.94-54.51-1.15-13.42,6.51-68.39-30.28-81.32-34.74-12.22-55,7.24-54.64,14.28S961,737.58,988.41,749.6Z" transform="translate(-214.47 -157.7)"/><path class="cls-19" d="M986.31,762.86s9.78.4,11.49-9.27-10.32-11.08-11.65-1.28L985.5,763Z" transform="translate(-214.47 -157.7)"/><path class="cls-12" d="M986.63,751l.3-1.39-26.37-8.44-.3,1.4Z" transform="translate(-214.47 -157.7)"/><path class="cls-12" d="M958.85,749.29a.71.71,0,0,0,.36-.17.75.75,0,0,0,.21-.34L963,736.22a.65.65,0,0,0,0-.28.62.62,0,0,0-.09-.26.72.72,0,0,0-.18-.21.64.64,0,0,0-.25-.12.71.71,0,0,0-.88.49l-3.56,12.56a.65.65,0,0,0,0,.28.79.79,0,0,0,.08.26.91.91,0,0,0,.18.21.85.85,0,0,0,.25.13.81.81,0,0,0,.31,0" transform="translate(-214.47 -157.7)"/><path d="M987.17,749a20.9,20.9,0,0,0-1.16,5.8,1.2,1.2,0,0,1-1.3,1.1h0a1.22,1.22,0,0,1-1.1-1.28l.62-8.56Z" transform="translate(-214.47 -157.7)"/><path d="M995.57,748.47a2.94,2.94,0,0,0-1.05-.87,3,3,0,0,0-2.67,0,2.94,2.94,0,0,0-1.05.87,6.67,6.67,0,0,0-1.59,3l-.32,1a.58.58,0,0,0,.1.38.54.54,0,0,0,.33.22.53.53,0,0,0,.39,0,.59.59,0,0,0,.26-.3l.32-1a6.34,6.34,0,0,1,1.31-2.52,1.87,1.87,0,0,1,.68-.63,1.93,1.93,0,0,1,1.79,0,1.87,1.87,0,0,1,.68.63.57.57,0,0,0,.18.12.57.57,0,0,0,.42,0,.55.55,0,0,0,.3-.3.54.54,0,0,0,.05-.21.5.5,0,0,0-.05-.21.57.57,0,0,0-.12-.18" transform="translate(-214.47 -157.7)"/><path class="cls-3" d="M991.71,759a2,2,0,0,0-.45-1,2,2,0,0,0-1-.59,1.86,1.86,0,0,0-1.12,0,2,2,0,0,0-.92.65,1.94,1.94,0,0,0-.16,2.13,1.93,1.93,0,0,0,.82.78,1.93,1.93,0,0,0,2.39-.54,2,2,0,0,0,.39-1.42" transform="translate(-214.47 -157.7)"/><g class="cls-9"><path class="cls-10" d="M989.14,760.94a2.22,2.22,0,0,0,.81-.18,2.12,2.12,0,0,0,1.25-2,2.2,2.2,0,0,0-.41-1.07,2.05,2.05,0,0,1,.64.67,2.13,2.13,0,0,1,.29.88,2,2,0,0,1-.12.76,1.76,1.76,0,0,1-.4.65,1.84,1.84,0,0,1-.63.44,1.93,1.93,0,0,1-.75.15,1.64,1.64,0,0,1-1.15-.33,1.05,1.05,0,0,1,.47.06" transform="translate(-214.47 -157.7)"/></g><path class="cls-10" d="M990.46,762.21s-1.78.45-2.38.54-2.58.2-2.58.2,2.49,3.37,5,4.07C990.46,767,990.6,763.55,990.46,762.21Z" transform="translate(-214.47 -157.7)"/><path class="cls-22" d="M1174,832.09a1.82,1.82,0,0,0,.15-2.45,1.65,1.65,0,0,0-2.3-.37l-10.24,8.09s7.64-7.72,11-11a2.19,2.19,0,0,0,.07-3,1.91,1.91,0,0,0-2.52-.15l-11.5,9.5s5.79-7.05,8.31-10.09a1.79,1.79,0,0,0,.42-1.31,2,2,0,0,0-.2-.67,1.77,1.77,0,0,0-.44-.54,1.82,1.82,0,0,0-2.45.15l-14.62,15.14c-.37.52-1.34.37-.74-.59a28.77,28.77,0,0,0,2.3-4.53c.74-2.15.52-4.08-1.56-5.12a.65.65,0,0,0-.39,0,.61.61,0,0,0-.28.27l-6.68,8.31a35.54,35.54,0,0,0-3.64,6.83l-2.6,6.46-2.08,5.83-46.61,42.46-12.78-19.21L1048,905.56l17.1,22.51a17.07,17.07,0,0,0,26.48.87l59.6-68.61,22.33-22.48a1.58,1.58,0,0,0,.15-1.86,1.32,1.32,0,0,0-.82-.52,1.34,1.34,0,0,0-1,.15l-6.46,5.12S1171,834.76,1174,832.09Z" transform="translate(-214.47 -157.7)"/><path class="cls-10" d="M927.69,848.18l8.81,13.37,4.87,83.77-8.55-2.86Z" transform="translate(-214.47 -157.7)"/><path class="cls-10" d="M962,798.43l-11.73-2.17L892.5,720.94l9.5-86.22s13-24.74,12.9-31.61l.53.44a2.67,2.67,0,0,1,.86,1.3,2.71,2.71,0,0,1,0,1.57l-10,32.11-7.43,79Z" transform="translate(-214.47 -157.7)"/><path class="cls-10" d="M1040.79,897l-4.92-36.32,16.37,40.07L1048,905.5Z" transform="translate(-214.47 -157.7)"/><path class="cls-23" d="M959.82,941.54a1.15,1.15,0,0,1-.33.72,1.1,1.1,0,0,1-.72.33h-7.23a1.14,1.14,0,0,1-.69-.34,1.2,1.2,0,0,1-.31-.71,1.11,1.11,0,0,1,1-1h7.23C959.42,940.49,960,941,959.82,941.54Z" transform="translate(-214.47 -157.7)"/><path class="cls-23" d="M971.22,851.25a1.14,1.14,0,0,1-.34.69,1.2,1.2,0,0,1-.71.31h-7.23a1.15,1.15,0,0,1-.71-.31.87.87,0,0,1,0-1.38,1.15,1.15,0,0,1,.71-.31h7.23A.9.9,0,0,1,971.22,851.25Z" transform="translate(-214.47 -157.7)"/><path class="cls-23" d="M951.9,867.67a1.2,1.2,0,0,1-.31.71,1.14,1.14,0,0,1-.69.34h-7.23a1.14,1.14,0,0,1-.69-.34,1.2,1.2,0,0,1-.31-.71h0A1.14,1.14,0,0,1,943,867a1.17,1.17,0,0,1,.68-.32h7.23A.91.91,0,0,1,951.9,867.67Z" transform="translate(-214.47 -157.7)"/><path class="cls-23" d="M1016.23,875.13a1.14,1.14,0,0,1-.34.69,1.2,1.2,0,0,1-.71.31H1008a1.2,1.2,0,0,1-.71-.31,1.14,1.14,0,0,1-.34-.69h0a1.14,1.14,0,0,1,.34-.69,1.2,1.2,0,0,1,.71-.31h7.23A.89.89,0,0,1,1016.23,875.13Z" transform="translate(-214.47 -157.7)"/><path class="cls-23" d="M1031.84,909.08a1.11,1.11,0,0,1-1,1h-7.23a1.11,1.11,0,0,1-1-1h0a1.2,1.2,0,0,1,.31-.71,1.14,1.14,0,0,1,.69-.34h7.23C1031.44,908,1032,908.56,1031.84,909.08Z" transform="translate(-214.47 -157.7)"/><path class="cls-23" d="M1002.62,953.73a1.2,1.2,0,0,1-.32.68,1.17,1.17,0,0,1-.68.32h-7.23a1.18,1.18,0,0,1-.71-.31,1.14,1.14,0,0,1-.34-.69h0a1.1,1.1,0,0,1,.33-.72,1.15,1.15,0,0,1,.72-.33h7.23C1002.22,952.68,1002.75,953.21,1002.62,953.73Z" transform="translate(-214.47 -157.7)"/><path class="cls-23" d="M959.82,811.27a1.15,1.15,0,0,1-.33.72,1.1,1.1,0,0,1-.72.33h-7.23a1.14,1.14,0,0,1-.69-.34,1.18,1.18,0,0,1-.31-.71h0a1.2,1.2,0,0,1,.32-.68,1.17,1.17,0,0,1,.68-.32h7.23C959.42,810.22,960,810.74,959.82,811.27Z" transform="translate(-214.47 -157.7)"/><path class="cls-23" d="M916.66,794.37a1.17,1.17,0,0,1-.32.68,1.2,1.2,0,0,1-.68.32h-7.23a1.11,1.11,0,0,1-1-1h0a1.13,1.13,0,0,1,1-1h7.23A.89.89,0,0,1,916.66,794.37Z" transform="translate(-214.47 -157.7)"/><path class="cls-23" d="M934.12,818.61a1.11,1.11,0,0,1-1,1h-7.23a1.18,1.18,0,0,1-.71-.31,1.14,1.14,0,0,1-.34-.69h0a1.1,1.1,0,0,1,.33-.72,1.15,1.15,0,0,1,.72-.33h7.23C933.72,817.56,934.25,818.09,934.12,818.61Z" transform="translate(-214.47 -157.7)"/><path class="cls-23" d="M927.26,774.14a1.15,1.15,0,0,1-.31.71,1.14,1.14,0,0,1-.69.34H919a1.14,1.14,0,0,1-1-1.05h0a1.14,1.14,0,0,1,.34-.69,1.2,1.2,0,0,1,.71-.31h7.23A.9.9,0,0,1,927.26,774.14Z" transform="translate(-214.47 -157.7)"/><path class="cls-23" d="M997.52,915.34a1.16,1.16,0,0,1-1.38-.56l-2.81-6.66a1.08,1.08,0,0,1,0-.79,1.13,1.13,0,0,1,.53-.59h0a1.08,1.08,0,0,1,.79,0,1.13,1.13,0,0,1,.59.53l2.81,6.66a1,1,0,0,1,.1.4,1,1,0,0,1-.07.42,1,1,0,0,1-.23.34,1.13,1.13,0,0,1-.36.22Z" transform="translate(-214.47 -157.7)"/><path class="cls-23" d="M986.64,864.2a1.13,1.13,0,0,1,0-.79,1.1,1.1,0,0,1,.48-.64l6.36-3.43a1.16,1.16,0,0,1,.8-.05,1.08,1.08,0,0,1,.63.48,1.16,1.16,0,0,1,0,.8,1.08,1.08,0,0,1-.48.63l-6.36,3.43a.91.91,0,0,1-.4.14,1,1,0,0,1-.41,0,1,1,0,0,1-.62-.54Z" transform="translate(-214.47 -157.7)"/><path class="cls-23" d="M974.32,891.65a1.16,1.16,0,0,1-.05-.8,1.08,1.08,0,0,1,.48-.63l6.36-3.43a1.11,1.11,0,0,1,1.43.43,1.16,1.16,0,0,1,.05.8,1.08,1.08,0,0,1-.48.63l-6.36,3.43a1.12,1.12,0,0,1-.4.14,1,1,0,0,1-.41,0,.91.91,0,0,1-.37-.21,1,1,0,0,1-.25-.33Z" transform="translate(-214.47 -157.7)"/><path class="cls-23" d="M902.81,778.78a1.11,1.11,0,0,1-1-1.12l.46-7.22a1.11,1.11,0,0,1,1.12-1h0a1.1,1.1,0,0,1,.71.37,1.08,1.08,0,0,1,.29.75l-.46,7.22C903.88,778.45,903.33,778.94,902.81,778.78Z" transform="translate(-214.47 -157.7)"/><path class="cls-23" d="M943.13,837.38a1.13,1.13,0,0,1,0-.79,1.1,1.1,0,0,1,.48-.64l6.36-3.43a1.16,1.16,0,0,1,.8,0,1.08,1.08,0,0,1,.63.48h0a1.16,1.16,0,0,1,.06.8,1.18,1.18,0,0,1-.49.63l-6.36,3.43a1.14,1.14,0,0,1-.39.14,1,1,0,0,1-.42,0,1,1,0,0,1-.37-.2,1.2,1.2,0,0,1-.25-.34Z" transform="translate(-214.47 -157.7)"/><path class="cls-23" d="M1021.42,961.74a1.16,1.16,0,0,1,0-.8,1.11,1.11,0,0,1,.48-.63l6.36-3.43a1.16,1.16,0,0,1,.8,0,1.11,1.11,0,0,1,.63.48h0a1.16,1.16,0,0,1,0,.8,1.11,1.11,0,0,1-.48.63l-6.36,3.43a1.07,1.07,0,0,1-.39.14,1,1,0,0,1-.42,0,1,1,0,0,1-.37-.21A1,1,0,0,1,1021.42,961.74Z" transform="translate(-214.47 -157.7)"/><path class="cls-23" d="M982.36,928.21a1.13,1.13,0,0,1-.32,1.45l-6.09,3.9a1.13,1.13,0,0,1-1.45-.32,1.14,1.14,0,0,1,.32-1.45l6.09-3.9a1,1,0,0,1,.38-.17,1.19,1.19,0,0,1,.42,0,1.17,1.17,0,0,1,.38.17A1,1,0,0,1,982.36,928.21Z" transform="translate(-214.47 -157.7)"/><path class="cls-23" d="M954.66,915a1.2,1.2,0,0,1-.79.12,1.12,1.12,0,0,1-.67-.43l-4-6.06a1.2,1.2,0,0,1-.12-.79,1.16,1.16,0,0,1,.43-.67h0a1.14,1.14,0,0,1,.79-.12,1.16,1.16,0,0,1,.67.43l4,6.06a1,1,0,0,1,.17.38,1,1,0,0,1,0,.42,1,1,0,0,1-.17.38,1,1,0,0,1-.31.28Z" transform="translate(-214.47 -157.7)"/><path class="cls-23" d="M933.63,798.28a1.14,1.14,0,0,1-.79.12,1.16,1.16,0,0,1-.67-.43l-3.95-6.06a1.2,1.2,0,0,1-.12-.79,1.16,1.16,0,0,1,.43-.67h0a1.2,1.2,0,0,1,.79-.12,1.12,1.12,0,0,1,.67.43l4,6.06a1,1,0,0,1,.16.39,1,1,0,0,1,0,.42,1,1,0,0,1-.18.38A1,1,0,0,1,933.63,798.28Z" transform="translate(-214.47 -157.7)"/><path class="cls-23" d="M1057.19,879a1.2,1.2,0,0,1-.79.12,1.16,1.16,0,0,1-.67-.43l-4-6.06a1.2,1.2,0,0,1-.12-.79,1.16,1.16,0,0,1,.43-.67,1.14,1.14,0,0,1,.79-.12,1.16,1.16,0,0,1,.67.43l4,6.06a1,1,0,0,1,.17.38,1,1,0,0,1,0,.42,1,1,0,0,1-.17.38,1,1,0,0,1-.31.28Z" transform="translate(-214.47 -157.7)"/><path class="cls-23" d="M1020.35,940.34a1.2,1.2,0,0,1-.79.12,1.16,1.16,0,0,1-.67-.43l-3.95-6.06a1.2,1.2,0,0,1-.12-.79,1.12,1.12,0,0,1,.43-.67h0a1.2,1.2,0,0,1,.79-.12,1.16,1.16,0,0,1,.67.43l3.95,6.06a1,1,0,0,1,.17.38,1,1,0,0,1,0,.42,1,1,0,0,1-.17.38,1,1,0,0,1-.31.28Z" transform="translate(-214.47 -157.7)"/><path class="cls-3" d="M1047,651.62h89.28a3.21,3.21,0,0,1,3.2,3.2v35.26a3.25,3.25,0,0,1-2,3,3.25,3.25,0,0,1-1.23.24h-70.63L1047,707.36a1.89,1.89,0,0,1-1,.35,2,2,0,0,1-1.82-.91,1.92,1.92,0,0,1-.32-1v-51a3.21,3.21,0,0,1,3.2-3.2" transform="translate(-214.47 -157.7)"/><path class="cls-12" d="M1107.17,672a6.7,6.7,0,0,0,8,6.57,6.68,6.68,0,0,0,5.26-5.26,6.66,6.66,0,0,0-.38-3.87,6.73,6.73,0,0,0-2.47-3,6.65,6.65,0,0,0-3.72-1.13,6.69,6.69,0,0,0-6.7,6.7Z" transform="translate(-214.47 -157.7)"/><path class="cls-12" d="M1085.91,672a6.7,6.7,0,0,0,8,6.57,6.68,6.68,0,0,0,5.26-5.26,6.66,6.66,0,0,0-.38-3.87,6.73,6.73,0,0,0-2.47-3,6.65,6.65,0,0,0-3.72-1.13,6.69,6.69,0,0,0-6.7,6.7Z" transform="translate(-214.47 -157.7)"/><path class="cls-12" d="M1064.64,672a6.7,6.7,0,0,0,8,6.57,6.68,6.68,0,0,0,5.26-5.26,6.66,6.66,0,0,0-.38-3.87,6.7,6.7,0,0,0-12.89,2.56" transform="translate(-214.47 -157.7)"/><path class="cls-12" d="M550,471.61a46.83,46.83,0,1,0-46.83-46.83A46.83,46.83,0,0,0,550,471.61Z" transform="translate(-214.47 -157.7)"/><path class="cls-3" d="M569.63,446h-39.2a2.9,2.9,0,0,1-2.89-2.89v-39.2a2.9,2.9,0,0,1,2.89-2.89h39.2a2.9,2.9,0,0,1,2.89,2.89v39.2a2.94,2.94,0,0,1-2.89,2.89Z" transform="translate(-214.47 -157.7)"/><path class="cls-3" d="M569.63,446h-39.2a2.9,2.9,0,0,1-2.89-2.89v-39.2a2.9,2.9,0,0,1,2.89-2.89h39.2a2.9,2.9,0,0,1,2.89,2.89v39.2a2.94,2.94,0,0,1-2.89,2.89Z" transform="translate(-214.47 -157.7)"/><path class="cls-2" d="M569.63,446h-39.2a2.9,2.9,0,0,1-2.89-2.89v-39.2a2.9,2.9,0,0,1,2.89-2.89h39.2a2.9,2.9,0,0,1,2.89,2.89v39.2a2.94,2.94,0,0,1-2.89,2.89Z" transform="translate(-214.47 -157.7)"/><path class="cls-24" d="M549.86,416.07a4,4,0,0,0,3.69-2.47,3.89,3.89,0,0,0,.23-2.31,4,4,0,0,0-3.14-3.14,3.89,3.89,0,0,0-2.31.23,4,4,0,0,0,1.53,7.69Z" transform="translate(-214.47 -157.7)"/><path class="cls-24" d="M527.54,443.13V432.32L542.75,421a1.65,1.65,0,0,1,1-.31,1.63,1.63,0,0,1,1,.37l5.26,4.63,10.7-8.38a1.65,1.65,0,0,1,1-.34,1.64,1.64,0,0,1,1,.4l9.66,8.44v17.4a2.9,2.9,0,0,1-2.89,2.89H530.44a3,3,0,0,1-2.9-3Z" transform="translate(-214.47 -157.7)"/><path class="cls-3" d="M980.2,327.25a25.4,25.4,0,1,1,9.73-1.93,25.43,25.43,0,0,1-9.73,1.93Z" transform="translate(-214.47 -157.7)"/><path class="cls-12" d="M972.24,305a2.65,2.65,0,0,0,1-.18,2.57,2.57,0,0,0,.88-.57l8.19,4.77c0,.17-.08.33-.08.5a3.09,3.09,0,0,0,3.09,3.09,3,3,0,0,0,2.18-.91,3.2,3.2,0,0,0,.7-3.38,3.06,3.06,0,0,0-1.68-1.68,3.07,3.07,0,0,0-1.2-.21,2.65,2.65,0,0,0-1,.18,2.57,2.57,0,0,0-.88.57l-8.19-4.77c0-.17.08-.33.08-.5a1.08,1.08,0,0,0-.08-.5l8.19-4.77a3,3,0,0,0,1.92.75,3,3,0,0,0,2.18-.91,3.2,3.2,0,0,0,.7-3.38,3.06,3.06,0,0,0-1.68-1.68,3.07,3.07,0,0,0-1.2-.21,3.07,3.07,0,0,0-3.09,3.09,1.08,1.08,0,0,0,.08.5l-8.19,4.77a3,3,0,0,0-1.92-.75,3.1,3.1,0,0,0-2.19,5.28,3.16,3.16,0,0,0,2.19.9Z" transform="translate(-214.47 -157.7)"/><path class="cls-3" d="M959.85,367.27l43.9,64.46a17.56,17.56,0,0,1-7.9,26.17L943,478l-10.33-16.75,38.88-20.69L941.21,406.9l-31.45-43.39,26.07-5.77a23,23,0,0,1,24,9.53Z" transform="translate(-214.47 -157.7)"/><path d="M844,386a52.31,52.31,0,0,0,37.13-.31c19.83-7.82,28.63-22.22,28.63-22.22l6.68-1.48s-14,22.24-36.77,28.74c-26.11,7.44-41-2-41-2Z" transform="translate(-214.47 -157.7)"/><path class="cls-25" d="M897.45,471.81l35.21-10.55L943,478s-11.65,4.76-15.91,6.24c-7.23,2.52-14-5.89-14-5.89Z" transform="translate(-214.47 -157.7)"/><path class="cls-25" d="M895.71,474.75c-.91.41-.82.61-1.8,3l-7.6,18.58a2.43,2.43,0,0,0,0,1.78,2.41,2.41,0,0,0,1.23,1.28h0a2.39,2.39,0,0,0,3.13-1.08l8.18-15.56-3.5,13.82a2.37,2.37,0,0,0,.48,2.09,2.4,2.4,0,0,0,.9.64,2.25,2.25,0,0,0,1.09.16h0A2.4,2.4,0,0,0,899,499a2.29,2.29,0,0,0,.79-1l5.79-16.27L901.16,494a2.18,2.18,0,0,0,.31,2,2.15,2.15,0,0,0,1.88.82h0a2.13,2.13,0,0,0,1.77-1.13l7.59-14.39-5.11,9.8a1.93,1.93,0,0,0-.23.85,1.89,1.89,0,0,0,.75,1.54,2,2,0,0,0,.81.34h0a2,2,0,0,0,1-.08,1.93,1.93,0,0,0,.81-.51l6.95-7.88,5.36-5.72Z" transform="translate(-214.47 -157.7)"/><g class="cls-9"><path class="cls-10" d="M913.44,481.3a.53.53,0,0,0-.41,0,.52.52,0,0,0-.32.26l-4.1,7.71-1,1.94a1.82,1.82,0,0,0-.22,1,1.74,1.74,0,0,0,.37,1L913.68,482a.58.58,0,0,0,0-.39.55.55,0,0,0-.25-.31Z" transform="translate(-214.47 -157.7)"/></g><path class="cls-10" d="M906.5,482a.52.52,0,0,0,0-.21.54.54,0,0,0,0-.22.52.52,0,0,0-.13-.17.45.45,0,0,0-.19-.11.39.39,0,0,0-.21,0,.83.83,0,0,0-.21.06l-.17.14a.72.72,0,0,0-.09.2l-2,5.69,2-5.71-2.34,6.61L901,494.39a2.3,2.3,0,0,0,.05.94,2.17,2.17,0,0,0,.45.83.24.24,0,0,0,.06-.11Z" transform="translate(-214.47 -157.7)"/><path class="cls-25" d="M894.7,475.8l1.36-2.79a2.31,2.31,0,0,1,2.51-1.27l23.07,4.2a2.38,2.38,0,0,1,1.07.49,2.44,2.44,0,0,1,.69,1,2.32,2.32,0,0,1,.13,1.17,2.42,2.42,0,0,1-.46,1.08l-.07.09Z" transform="translate(-214.47 -157.7)"/><path class="cls-10" d="M943,478l28.85-11,6.25,19H973l-4.66-14.35Z" transform="translate(-214.47 -157.7)"/><path class="cls-10" d="M932.67,461.25l38.87-20.69L936.86,400.9l.92-.73,39.32,42.28-39,19.24-2,1-2,1Z" transform="translate(-214.47 -157.7)"/><path class="cls-10" d="M932.67,461.25,943,478l-15.43,6.08a9.18,9.18,0,0,1-7-.11l-1.13-.49,5.18-.45,14.93-6.22L930.28,462Z" transform="translate(-214.47 -157.7)"/><path class="cls-4" d="M948.82,465.1a1.45,1.45,0,0,0,.85-.1,1.48,1.48,0,0,0,.66-.55,1.54,1.54,0,0,0,.24-.83,1.51,1.51,0,0,0-.27-.82,1.46,1.46,0,0,0-.67-.53,1.48,1.48,0,0,0-.86-.07,1.46,1.46,0,0,0-.75.41,1.53,1.53,0,0,0-.39.77,1.42,1.42,0,0,0,0,.58,1.48,1.48,0,0,0,.23.53,1.5,1.5,0,0,0,1,.61Z" transform="translate(-214.47 -157.7)"/><path class="cls-4" d="M951.78,441.22a1.46,1.46,0,0,0,.85-.1,1.48,1.48,0,0,0,.66-.55,1.54,1.54,0,0,0,.24-.83,1.51,1.51,0,0,0-.27-.82,1.4,1.4,0,0,0-.67-.53,1.48,1.48,0,0,0-.86-.07,1.46,1.46,0,0,0-.75.41,1.53,1.53,0,0,0-.39.77,1.42,1.42,0,0,0,0,.58,1.48,1.48,0,0,0,.23.53,1.5,1.5,0,0,0,1,.61Z" transform="translate(-214.47 -157.7)"/><path class="cls-4" d="M969.43,390.88a1.45,1.45,0,0,0,.85-.1,1.48,1.48,0,0,0,.66-.55,1.54,1.54,0,0,0,.24-.83,1.51,1.51,0,0,0-.27-.82,1.4,1.4,0,0,0-.67-.53,1.48,1.48,0,0,0-.86-.07,1.51,1.51,0,0,0-.75.41,1.53,1.53,0,0,0-.39.77,1.42,1.42,0,0,0,0,.58,1.48,1.48,0,0,0,.23.53,1.5,1.5,0,0,0,1,.61Z" transform="translate(-214.47 -157.7)"/><path class="cls-4" d="M969.43,418.38a1.45,1.45,0,0,0,.85-.1,1.48,1.48,0,0,0,.66-.55,1.54,1.54,0,0,0,.24-.83,1.51,1.51,0,0,0-.27-.82,1.4,1.4,0,0,0-.67-.53,1.48,1.48,0,0,0-.86-.07,1.51,1.51,0,0,0-.75.41,1.53,1.53,0,0,0-.39.77,1.42,1.42,0,0,0,0,.58,1.48,1.48,0,0,0,.23.53,1.5,1.5,0,0,0,1,.61Z" transform="translate(-214.47 -157.7)"/><path class="cls-4" d="M982.9,437.31a1.46,1.46,0,0,0,.85-.1,1.48,1.48,0,0,0,.66-.55,1.54,1.54,0,0,0,.24-.83,1.51,1.51,0,0,0-.27-.82,1.46,1.46,0,0,0-.67-.53,1.48,1.48,0,0,0-.86-.07,1.52,1.52,0,0,0-.75.42,1.46,1.46,0,0,0-.39.76,1.42,1.42,0,0,0,0,.58,1.48,1.48,0,0,0,.23.53,1.49,1.49,0,0,0,.42.41,1.47,1.47,0,0,0,.54.2Z" transform="translate(-214.47 -157.7)"/><path class="cls-4" d="M981.42,457.41a1.45,1.45,0,0,0,.85-.1,1.48,1.48,0,0,0,.66-.55,1.54,1.54,0,0,0,.24-.83,1.51,1.51,0,0,0-.27-.82,1.46,1.46,0,0,0-.67-.53,1.48,1.48,0,0,0-.86-.07,1.48,1.48,0,0,0-1.14,1.18,1.42,1.42,0,0,0,0,.58,1.48,1.48,0,0,0,.23.53,1.5,1.5,0,0,0,1,.61Z" transform="translate(-214.47 -157.7)"/><path class="cls-4" d="M965,465.1a1.45,1.45,0,0,0,.85-.1,1.48,1.48,0,0,0,.66-.55,1.54,1.54,0,0,0,.24-.83,1.51,1.51,0,0,0-.27-.82,1.46,1.46,0,0,0-.67-.53,1.48,1.48,0,0,0-.86-.07,1.51,1.51,0,0,0-.75.41,1.53,1.53,0,0,0-.39.77,1.42,1.42,0,0,0,0,.58,1.48,1.48,0,0,0,.23.53,1.5,1.5,0,0,0,1,.61Z" transform="translate(-214.47 -157.7)"/><path class="cls-4" d="M982.9,416.9a1.46,1.46,0,0,0,.85-.1,1.48,1.48,0,0,0,.66-.55,1.54,1.54,0,0,0,.24-.83,1.51,1.51,0,0,0-.27-.82,1.46,1.46,0,0,0-.67-.53,1.48,1.48,0,0,0-.86-.07,1.52,1.52,0,0,0-.75.42,1.46,1.46,0,0,0-.39.76,1.42,1.42,0,0,0,0,.58,1.48,1.48,0,0,0,.23.53,1.49,1.49,0,0,0,.42.41,1.47,1.47,0,0,0,.54.2Z" transform="translate(-214.47 -157.7)"/><path class="cls-4" d="M969.43,454.12a1.45,1.45,0,0,0,.85-.1,1.48,1.48,0,0,0,.66-.55,1.54,1.54,0,0,0,.24-.83,1.51,1.51,0,0,0-.27-.82,1.48,1.48,0,0,0-1.53-.6,1.48,1.48,0,0,0-1.14,1.18,1.42,1.42,0,0,0,0,.58,1.48,1.48,0,0,0,.23.53,1.5,1.5,0,0,0,1,.61Z" transform="translate(-214.47 -157.7)"/><path class="cls-4" d="M996.34,441.22a1.46,1.46,0,0,0,.85-.1,1.48,1.48,0,0,0,.66-.55,1.54,1.54,0,0,0,.24-.83,1.51,1.51,0,0,0-.27-.82,1.4,1.4,0,0,0-.67-.53,1.48,1.48,0,0,0-.86-.07,1.51,1.51,0,0,0-.75.41,1.53,1.53,0,0,0-.39.77,1.42,1.42,0,0,0,0,.58,1.48,1.48,0,0,0,.23.53,1.5,1.5,0,0,0,1,.61Z" transform="translate(-214.47 -157.7)"/><path class="cls-4" d="M948.82,401.62a1.45,1.45,0,0,0,.85-.1,1.48,1.48,0,0,0,.66-.55,1.54,1.54,0,0,0,.24-.83,1.51,1.51,0,0,0-.27-.82,1.48,1.48,0,0,0-2.28-.18,1.46,1.46,0,0,0-.39.76,1.42,1.42,0,0,0,0,.58,1.48,1.48,0,0,0,.23.53,1.5,1.5,0,0,0,1,.61Z" transform="translate(-214.47 -157.7)"/><path class="cls-4" d="M948.82,373.24a1.45,1.45,0,0,0,.85-.1,1.48,1.48,0,0,0,.66-.55,1.54,1.54,0,0,0,.24-.83,1.51,1.51,0,0,0-.27-.82,1.46,1.46,0,0,0-.67-.53,1.48,1.48,0,0,0-1.61.35,1.46,1.46,0,0,0-.39.76,1.42,1.42,0,0,0,0,.58,1.48,1.48,0,0,0,.23.53,1.37,1.37,0,0,0,.42.41,1.47,1.47,0,0,0,.54.2Z" transform="translate(-214.47 -157.7)"/><path class="cls-4" d="M956.1,481.18a1.46,1.46,0,0,0,.85-.1,1.48,1.48,0,0,0,.66-.55,1.54,1.54,0,0,0,.24-.83,1.51,1.51,0,0,0-.27-.82,1.4,1.4,0,0,0-.67-.53,1.48,1.48,0,0,0-.86-.07,1.48,1.48,0,0,0-1.14,1.18,1.42,1.42,0,0,0,0,.58,1.48,1.48,0,0,0,.23.53,1.49,1.49,0,0,0,.42.41,1.47,1.47,0,0,0,.54.2Z" transform="translate(-214.47 -157.7)"/><path class="cls-3" d="M634.46,901.14H604a3,3,0,0,1-2.11-.81,3,3,0,0,1-.94-2.06V866.81a3,3,0,0,1,.94-2,3,3,0,0,1,2.11-.82h30.48a3,3,0,0,1,2.08.83,3,3,0,0,1,.92,2v31.46a3,3,0,0,1-3,2.87Z" transform="translate(-214.47 -157.7)"/><path class="cls-12" d="M615.87,889.93l-6.26-6.12a.91.91,0,0,1,0-1.23l1.61-1.64a.94.94,0,0,1,1.23,0l4,3.94,9.48-9.74a.94.94,0,0,1,1.23,0l1.64,1.61a.91.91,0,0,1,0,1.23l-11.71,12a.81.81,0,0,1-.29.19.75.75,0,0,1-.33.07.77.77,0,0,1-.34-.07.81.81,0,0,1-.29-.19" transform="translate(-214.47 -157.7)"/><path class="cls-12" d="M1238.23,556.64H1158a4.63,4.63,0,0,1-1.8-.36,4.81,4.81,0,0,1-1.52-1,4.74,4.74,0,0,1-1-1.53,4.54,4.54,0,0,1-.36-1.79V471.72a4.62,4.62,0,0,1,.35-1.8,4.68,4.68,0,0,1,1-1.54,4.94,4.94,0,0,1,1.53-1,4.63,4.63,0,0,1,1.8-.36h80.23a4.68,4.68,0,0,1,4.69,4.69V552a4.69,4.69,0,0,1-4.69,4.64Z" transform="translate(-214.47 -157.7)"/><path class="cls-26" d="M1195.1,538.87a8.74,8.74,0,0,1-8.72-8.72V496.54a11.74,11.74,0,0,1,11.73-11.73h0a11.71,11.71,0,0,1,4.49.89,12,12,0,0,1,3.81,2.55,11.74,11.74,0,0,1,3.43,8.3v26.78a1.63,1.63,0,0,1-.12.62,1.77,1.77,0,0,1-.36.53,1.47,1.47,0,0,1-.53.36,1.66,1.66,0,0,1-1.24,0,1.47,1.47,0,0,1-.53-.36,1.77,1.77,0,0,1-.36-.53,1.63,1.63,0,0,1-.12-.62V496.55a8.63,8.63,0,0,0-.64-3.25,8.51,8.51,0,0,0-4.59-4.59,8.63,8.63,0,0,0-3.25-.64,8.54,8.54,0,0,0-6,2.48,8.48,8.48,0,0,0-2.48,6v33.61a5.47,5.47,0,0,0,10.93,0V504.22a2.78,2.78,0,0,0-2.76-2.77h0a2.78,2.78,0,0,0-2.77,2.77v18.53a1.63,1.63,0,0,1-3.26,0V504.22a6,6,0,0,1,6-6h0a6,6,0,0,1,6,6v25.93a8.74,8.74,0,0,1-8.67,8.72Z" transform="translate(-214.47 -157.7)"/><path d="M932.67,461.25l3.19-1.7,10.71,17L943,478Z" transform="translate(-214.47 -157.7)"/><path d="M698.91,511.63l19.94,13,2.81-3.17-20.57-12.89Z" transform="translate(-214.47 -157.7)"/></svg>